<?xml version="1.0" encoding="utf-8"?>
<!-- Generator: Adobe Illustrator 17.0.0, SVG Export Plug-In . SVG Version: 6.00 Build 0)  -->
<!DOCTYPE svg PUBLIC "-//W3C//DTD SVG 1.1//EN" "http://www.w3.org/Graphics/SVG/1.1/DTD/svg11.dtd">
<svg version="1.1" id="Layer_1" xmlns="http://www.w3.org/2000/svg" xmlns:xlink="http://www.w3.org/1999/xlink" x="0px" y="0px"
	 width="500px" height="300px" viewBox="0 0 500 300" enable-background="new 0 0 500 300" xml:space="preserve">
<polygon fill="#586D54" points="463,191.468 419.75,181.616 381.167,191.468 "/>
<polygon fill="#435140" points="415.5,189.125 429.642,185.916 451.25,190.375 "/>
<polygon fill="#5F755A" points="311.583,191.002 386.083,191.468 419.75,181.616 "/>
<polygon fill="#586D54" points="419.75,181.616 324.083,191.002 346.417,175.583 "/>
<polygon fill="#3A4437" points="342.308,178.42 390.5,181.616 338.812,180.833 "/>
<polygon fill="#5F755A" points="347.851,175.701 324.083,191.002 290.25,167.917 "/>
<polygon fill="#435140" points="343.627,178.507 340.063,180.852 302.5,171.59 "/>
<polygon fill="#586D54" points="273.75,188.917 325.5,191.002 290.25,167.917 "/>
<polygon fill="#435140" points="311.061,182.116 290.25,167.917 288.017,170.871 "/>
<polygon fill="#5F755A" points="247.833,170.136 273.75,189.75 290.25,167.917 "/>
<polygon fill="#586D54" points="247.833,170.136 200.25,165.25 273.75,188.917 "/>
<polygon fill="#435140" points="247.833,170.136 242.986,169.638 264.417,182.687 "/>
<polygon fill="#5F755A" points="200.25,165.25 275.188,188.917 216.375,189.75 "/>
<polygon fill="#435140" points="207.649,176.492 200.25,165.25 204.686,166.692 "/>
<polygon fill="#586D54" points="200.25,165.25 161.749,178.42 217.917,189.75 "/>
<polygon fill="#A2BC9B" points="203,180.833 324.083,191.002 217.917,189.75 "/>
<polygon fill="#627F55" points="287.171,171.835 276.997,184.784 308.25,191.396 "/>
<polygon fill="#75936A" points="291.583,186.186 308.25,191.396 279.25,196.75 "/>
<polygon fill="#A2BC9B" points="201.911,180.5 159.583,188.25 217.917,189.75 "/>
<polygon fill="#75936A" points="182.25,196.75 217.417,189.458 197.313,185.125 "/>
<polygon fill="#627F55" points="217.417,189.458 196.667,173.792 185.405,183.001 "/>
<polygon fill="#5F755A" points="151,171.59 161.749,179.277 200.25,165.25 "/>
<polygon fill="#75936A" points="159.583,188.25 187.948,183.514 140.25,174.083 "/>
<polygon fill="#435140" points="161.994,178.337 159.225,176.492 169.392,169.222 "/>
<polygon fill="#586D54" points="142.333,166.083 151.25,172.252 169.392,169.222 "/>
<polygon fill="#627F55" points="142.333,166.083 161.749,178.42 140.25,174.083 "/>
<polygon fill="#E8E846" points="147.996,175.646 142.94,174.626 143.54,171.59 "/>
<polygon fill="#627F55" points="152.857,183.321 53.25,184.471 140.25,174.083 "/>
<polygon fill="#75936A" points="55.5,180.5 140.25,174.083 64.333,184.343 "/>
<polygon fill="#5F755A" points="53.25,174.083 53.25,184.471 64.333,184.343 "/>
</svg>
