<?xml version="1.0" encoding="utf-8"?>
<!-- Generator: Adobe Illustrator 17.0.0, SVG Export Plug-In . SVG Version: 6.00 Build 0)  -->
<!DOCTYPE svg PUBLIC "-//W3C//DTD SVG 1.1//EN" "http://www.w3.org/Graphics/SVG/1.1/DTD/svg11.dtd">
<svg version="1.1" id="Layer_1" xmlns="http://www.w3.org/2000/svg" xmlns:xlink="http://www.w3.org/1999/xlink" x="0px" y="0px"
	 width="500px" height="300px" viewBox="0 0 500 300" enable-background="new 0 0 500 300" xml:space="preserve">
<polygon fill="#FFF2BD" points="220.313,78.667 204.333,73.167 187.833,95.5 "/>
<polygon fill="#FFF6D2" points="226.803,87.657 252.002,124.118 219.5,105.887 "/>
<polygon fill="#FFF2BD" points="252.002,124.118 217.817,113.833 222.25,126.75 "/>
<polygon fill="#A5734E" points="316.863,32.431 335.167,21.167 338.634,245.583 "/>
<polygon fill="#915C3F" points="338.634,245.583 317.36,32.126 327.167,256.732 "/>
<polygon fill="#A5734E" points="325,200.25 331.905,178.694 171.25,68.5 "/>
<polygon fill="#915C3F" points="272.837,155.551 152.833,65.063 171.25,68.5 "/>
<polygon fill="#FFF6D2" points="268.5,112.25 268.5,162.5 250.539,122.227 "/>
<polygon fill="#FFF2BD" points="252.002,124.118 268.5,112.25 215.676,77.171 "/>
<polygon fill="#FFF2BD" points="262.362,198.017 268.5,162.5 252.002,124.118 "/>
<polygon fill="#FFF6D2" points="262.167,196.5 270.526,264.667 268.5,162.5 "/>
<polygon fill="#FFF2BD" points="262.167,259.167 262.167,196.5 274.828,294.667 "/>
<polygon fill="#FFF6D2" points="262.167,258.125 274.828,294.667 262.167,288 "/>
<polygon fill="#FFF6D2" points="210.742,50.53 204.333,73.167 226.125,84.11 "/>
<polygon fill="#FFEDA1" points="210.742,50.53 226.125,85.292 242.865,50.902 "/>
<polygon fill="#FFF2BD" points="226.573,59.25 204.333,47 215.875,32.431 "/>
<polygon fill="#FFF6D2" points="215.676,32.496 236.659,32.431 226.573,59.25 "/>
<polygon fill="#FFF2BD" points="236.458,32.432 226.573,59.25 248,48.271 "/>
<polygon fill="#FFF2BD" points="225.5,85.625 242.865,50.902 260.5,67 "/>
<polygon fill="#FFF6D2" points="268.5,112.25 260.5,67 222.424,85.892 "/>
<polygon fill="#FFEEA9" points="246.691,90.961 232.833,84.24 243.667,61.333 "/>
<polygon fill="#FFF0B0" points="246.691,90.961 199.5,103.125 232.833,84.24 "/>
<polygon fill="#333333" points="232.833,42.125 226.573,42.625 237.333,36.083 "/>
<polygon fill="#383838" points="220.313,41.667 222.25,49.125 219.5,46.75 "/>
<polygon fill="#333333" points="229.417,54.417 223.375,54.417 220.313,41.667 "/>
<polygon fill="#333333" points="214.125,35.375 220.313,42.125 226.573,42.625 "/>
<polygon fill="#333333" points="232.833,42.125 230.583,49.125 233.583,46.583 "/>
<polygon fill="#383838" points="229.417,54.417 232.833,42.125 220.313,42.125 "/>
<polygon fill="#CCA183" points="223.344,44.375 224.188,45.966 222.438,45.966 "/>
<polygon fill="#CCA183" points="229.292,44.375 230.083,45.966 228.542,45.966 "/>
</svg>
