<?xml version="1.0" encoding="utf-8"?>
<!-- Generator: Adobe Illustrator 17.0.0, SVG Export Plug-In . SVG Version: 6.00 Build 0)  -->
<!DOCTYPE svg PUBLIC "-//W3C//DTD SVG 1.1//EN" "http://www.w3.org/Graphics/SVG/1.1/DTD/svg11.dtd">
<svg version="1.1" id="Layer_1" xmlns="http://www.w3.org/2000/svg" xmlns:xlink="http://www.w3.org/1999/xlink" x="0px" y="0px"
	 width="500px" height="300px" viewBox="0 0 500 300" enable-background="new 0 0 500 300" xml:space="preserve">
<polygon fill="#191919" points="60.216,289.52 61.745,57.389 48.653,146.503 "/>
<polygon fill="#262626" points="60.216,289.52 76.528,183.881 58.833,162.167 "/>
<polygon fill="#353535" points="76.528,183.881 58.833,163.833 61.745,57.389 "/>
<polygon fill="#191919" points="124.253,277.289 96.659,177.676 117.917,115.567 "/>
<polygon fill="#262626" points="124.253,277.289 107.923,179.458 121.085,151.25 "/>
<polygon fill="#262626" points="124.253,277.289 123.489,174.8 117.917,115.567 "/>
<polygon fill="#353535" points="123.489,174.8 107.923,179.458 117.917,115.567 "/>
<polygon fill="#191919" points="183.803,272.784 137.839,190.252 147.194,190.252 "/>
<polygon fill="#262626" points="137.839,190.252 147.375,190.875 117.917,89.488 "/>
<polygon fill="#353535" points="183.803,272.784 146.592,190.252 117.917,89.488 "/>
<polygon fill="#353535" points="183.803,272.784 176.201,238.575 203.512,93.43 "/>
<polygon fill="#191919" points="183.381,272.784 208.58,207.321 189.483,212.831 "/>
<polygon fill="#262626" points="208.58,207.321 189.167,215.522 203.512,93.43 "/>
<polygon fill="#353535" points="223.925,282.076 215.68,139.87 225.404,80.883 "/>
<polygon fill="#191919" points="223.925,282.076 237.019,127.903 223.966,172.873 "/>
<polygon fill="#262626" points="223.925,175.5 237.019,127.903 225.404,80.883 "/>
<polygon fill="#191919" points="223.925,56.826 301.362,190.283 304.583,189.372 "/>
<polygon fill="#353535" points="312.829,181.136 304.171,189.372 223.925,56.826 "/>
<polygon fill="#262626" points="223.925,282.076 308.394,224.214 315.996,183.107 "/>
<polygon fill="#353535" points="223.925,282.076 298.258,223.085 315.996,183.107 "/>
<polygon fill="#353535" points="349.609,73.586 352.375,146.875 334.248,263.071 "/>
<polygon fill="#191919" points="334.248,263.071 361.328,187.612 351.153,141.749 "/>
<polygon fill="#262626" points="351.22,144.678 361.328,187.612 349.609,73.586 "/>
<polygon fill="#353535" points="373.857,212.812 376.814,268.843 396.978,89.565 "/>
<polygon fill="#262626" points="376.625,268.375 404.917,124.125 396.945,89.488 "/>
<polygon fill="#191919" points="436.223,183.107 404.688,125.362 396.945,89.488 "/>
<polygon fill="#262626" points="453.68,272.784 436.223,183.107 404.496,124.474 "/>
<polygon fill="#191919" points="436.125,183.107 453.5,272.375 451.146,238.152 "/>
<polygon fill="#353535" points="388.417,206.958 391.063,193.75 420.79,173.815 "/>
<polygon fill="#191919" points="436.223,183.107 388.417,206.958 420.79,173.815 "/>
</svg>
