<?xml version="1.0" encoding="utf-8"?>
<!-- Generator: Adobe Illustrator 17.0.0, SVG Export Plug-In . SVG Version: 6.00 Build 0)  -->
<!DOCTYPE svg PUBLIC "-//W3C//DTD SVG 1.1//EN" "http://www.w3.org/Graphics/SVG/1.1/DTD/svg11.dtd">
<svg version="1.1" xmlns="http://www.w3.org/2000/svg" xmlns:xlink="http://www.w3.org/1999/xlink" x="0px" y="0px" width="500px"
	 height="300px" viewBox="0 0 500 300" enable-background="new 0 0 500 300" xml:space="preserve">
<g id="Layer_2" display="none">
	
		<image display="inline" overflow="visible" width="384" height="768" xlink:href="../species/asiatic-black-bear-standing-2.jpg"  transform="matrix(0.4316 0 0 0.4316 167.1354 -27.1162)">
	</image>
</g>
<g id="Layer_1">
	<polygon fill="#333333" points="199.167,287.5 234.625,287.5 234.625,255.833 	"/>
	<polygon fill="#2B2B2B" points="262.25,237.25 213,275.5 207,227.75 	"/>
	<polygon fill="#3F3F3F" points="242.711,69.232 226.167,196.167 205.75,94.25 	"/>
	<polygon fill="#333333" points="300.117,228.262 295.25,281.5 256.5,237.5 	"/>
	<polygon fill="#333333" points="291.351,207.54 300.117,228.262 303.09,145.625 	"/>
	<polygon fill="#2B2B2B" points="278.135,291.167 304.567,292.167 278.135,261.761 	"/>
	<polygon fill="#333333" points="228.167,31.5 265.5,19 242.263,72.667 	"/>
	<polygon fill="#3A3A3A" points="303.09,145.625 289.246,71.167 293.5,205 	"/>
	<polygon fill="#333333" points="258.833,239.5 207,227.75 226.451,188.991 	"/>
	<polygon fill="#3F3F3F" points="241.833,71.167 294,87.833 294,211.167 	"/>
	<polygon fill="#3F3F3F" points="259.065,240.413 225.252,190.75 294.5,204.333 	"/>
	<polygon fill="#756E6D" points="208.75,22.167 234.208,20.542 217.375,25.625 	"/>
	<polygon fill="#2B2B2B" points="258.833,239.5 293.5,205 300.117,228.262 	"/>
	<polygon fill="#3A3A3A" points="241.833,71.167 294,205 225.252,191.379 	"/>
	<polygon fill="#333333" points="207,94.25 190.625,145.625 218.841,157.211 	"/>
	<polygon fill="#2B2B2B" points="197.731,123.329 213.75,140 190.625,145.625 	"/>
	<polygon fill="#3A3A3A" points="265.5,19 297.667,89.667 241.833,71.167 	"/>
	<polygon fill="#3A3A3A" points="242.711,70.667 225.252,23.333 204.211,97.833 	"/>
	<polygon fill="#3F3F3F" points="265.5,19 233.667,19.433 219.838,37.842 	"/>
	<polygon fill="#2B2B2B" points="294.5,113.756 309.833,138.083 258.833,136.833 	"/>
	<polygon fill="#333333" points="269.75,80.417 309.833,138.083 294,87.833 	"/>
	<polygon fill="#333333" points="253.375,10.467 264.792,7.359 262.125,17.875 	"/>
	<polygon fill="#3A3A3A" points="244,1.5 208.75,14.625 265.697,19.433 	"/>
	<polygon fill="#3A3A3A" points="208.75,22.167 214.807,12.428 265.5,19 	"/>
	<polygon fill="#2B2B2B" points="205.75,15.667 208.75,22.167 214.807,12.428 	"/>
	<polygon fill="#917B78" points="208.75,22.167 214.807,12.428 232.727,20.829 	"/>
	<polygon fill="#917B78" points="219.838,37.842 232.727,20.829 212.313,26.5 	"/>
	<polygon fill="#BCBCBC" points="234.896,11.987 238.583,10.467 233.91,9.742 	"/>
	<polygon fill="#D8C1AB" points="242.711,80.417 217.167,97.833 246.563,86.75 	"/>
	<polygon fill="#C4AE9D" points="271.667,95.167 243.521,87.792 242.711,80.417 	"/>
</g>
<g id="Layer_3" display="none">
	
		<image display="inline" overflow="visible" width="384" height="768" xlink:href="../species/asiatic-black-bear-standing-2.jpg"  transform="matrix(0.4316 0 0 0.4316 167.1354 -27.1162)">
	</image>
</g>
</svg>
