<?xml version="1.0" encoding="utf-8"?>
<!-- Generator: Adobe Illustrator 17.0.0, SVG Export Plug-In . SVG Version: 6.00 Build 0)  -->
<!DOCTYPE svg PUBLIC "-//W3C//DTD SVG 1.1//EN" "http://www.w3.org/Graphics/SVG/1.1/DTD/svg11.dtd">
<svg version="1.1" id="Layer_1" xmlns="http://www.w3.org/2000/svg" xmlns:xlink="http://www.w3.org/1999/xlink" x="0px" y="0px"
	 width="500px" height="300px" viewBox="0 0 500 300" enable-background="new 0 0 500 300" xml:space="preserve">
<polygon fill="#1C1C1C" points="229.283,263 230.501,192.75 207,263 "/>
<polygon fill="#2B2B2B" points="204.56,164.285 207,263 230.501,196.749 "/>
<polygon fill="#1C1C1C" points="304.5,147.75 299.5,241.5 321,241.5 "/>
<polygon fill="#1C1C1C" points="353.5,68 312.447,51.503 262.707,85.5 "/>
<polygon fill="#2B2B2B" points="265.583,83.286 299.473,132.375 353.5,68 "/>
<polygon fill="#2B2B2B" points="263.838,247.5 271.634,173.335 242.082,247.5 "/>
<polygon fill="#2B2B2B" points="261.085,155.5 242.082,247.5 275.333,173.335 "/>
<polygon fill="#1C1C1C" points="291.75,191.434 265.583,176.5 265.583,83.286 "/>
<polygon fill="#1C1C1C" points="286.434,90.797 263.84,83.286 305,150 "/>
<polygon fill="#2B2B2B" points="265.583,83.286 305,150 301,241.5 "/>
<polygon fill="#1C1C1C" points="257.75,46.667 238.167,103 212.622,46.667 "/>
<polygon fill="#1C1C1C" points="200,72.667 215,46.667 193.333,44.333 "/>
<polygon fill="#2B2B2B" points="214,46.833 200,72.667 238.167,103 "/>
<polygon fill="#2B2B2B" points="272.838,132.375 249.332,203.945 269,263 "/>
<polygon fill="#1C1C1C" points="250.135,201.5 247.5,263 269,263 "/>
<polygon fill="#F5C032" points="248,208 274.164,187.75 274.164,128.337 "/>
<polygon fill="#1C1C1C" points="271.667,68 275.333,40.167 254.917,47.375 "/>
<polygon fill="#2B2B2B" points="271.667,68 255.833,46.667 238.167,103 "/>
<polygon fill="#EDB026" points="231.5,198 210,113 238.167,166.25 "/>
<polygon fill="#F5C032" points="203.667,163.167 210,113 231.5,198 "/>
<polygon fill="#EDB026" points="248,208 274.164,128.337 238.167,166.25 "/>
<polygon fill="#F5C032" points="274.164,128.337 238.167,166.25 210,113 "/>
<polygon fill="#EDB026" points="204.88,79.173 274.164,128.337 210,113 "/>
<polygon fill="#F5C032" points="274.164,128.337 265.111,80.805 238.167,103 "/>
<polygon fill="#995E60" points="237.516,81.833 229.283,95.94 245.749,95.078 "/>
<polygon fill="#111111" points="214,68 222,65 220.833,72.667 "/>
<polygon fill="#111111" points="256.165,68 248.5,65 250,72.667 "/>
<polygon fill="#F4F4F4" points="200,72.667 238.167,103 217.5,96 "/>
<polygon fill="#F4F4F4" points="261,88.833 238.167,103 271.667,68 "/>
<polygon fill="#F4F4F4" points="245.749,95.078 229.283,95.94 238.167,103 "/>
</svg>
