<?xml version="1.0" encoding="utf-8"?>
<!-- Generator: Adobe Illustrator 17.0.0, SVG Export Plug-In . SVG Version: 6.00 Build 0)  -->
<!DOCTYPE svg PUBLIC "-//W3C//DTD SVG 1.1//EN" "http://www.w3.org/Graphics/SVG/1.1/DTD/svg11.dtd">
<svg version="1.1" id="Layer_1" xmlns="http://www.w3.org/2000/svg" xmlns:xlink="http://www.w3.org/1999/xlink" x="0px" y="0px"
	 width="500px" height="300px" viewBox="0 0 500 300" enable-background="new 0 0 500 300" xml:space="preserve">
<polygon fill="#3D3023" points="241,217 250,250 238.116,250 "/>
<polygon fill="#514133" points="250,250 244.612,173 230.049,189.5 "/>
<polygon fill="#3D3023" points="213,189 313.269,186.583 305,173.933 "/>
<polygon fill="#3D3023" points="353.833,138.895 379.874,119.25 347.5,125.167 "/>
<polygon fill="#3D3023" points="326.5,258.5 341.5,258.5 341.5,173 "/>
<polygon fill="#3D3023" points="129,121 143.727,81.5 139.5,129.167 "/>
<polygon fill="#5E4A35" points="166.114,81.5 217.833,110 191,157 "/>
<polygon fill="#3D3023" points="191,157 175.547,110 157.523,114 "/>
<polygon fill="#514133" points="208.5,105.333 191,157 253.167,100 "/>
<polygon fill="#3D3023" points="225.25,225.75 220.5,261 233,261 "/>
<polygon fill="#3D3023" points="357,265 341.5,267.5 345.207,229.389 "/>
<polygon fill="#5E4A35" points="348.664,210.347 305,175.5 357,265 "/>
<polygon fill="#5E4A35" points="307.868,177.789 250,100 191,157 "/>
<polygon fill="#514133" points="250,100 306.33,177.789 324,107.167 "/>
<polygon fill="#514133" points="348.664,210.347 303.433,175.246 357,129.167 "/>
<polygon fill="#5E4A35" points="357,129.167 324,107.167 305,175.5 "/>
<polygon fill="#514133" points="305,175.5 213,189 191,157 "/>
<polygon fill="#F4ECD7" points="143.727,81.5 144.201,75.626 129,121 "/>
<polygon fill="#514133" points="167.5,75.626 175.547,110 139.5,129.167 "/>
<polygon fill="#3D3023" points="139.5,129.167 143.727,81.5 167.916,77.492 "/>
<polygon fill="#999487" points="177.462,75 178.047,64.313 172.438,67.063 "/>
<polygon fill="#999487" points="143.727,81.5 168.417,56.346 144.938,66.5 "/>
<polygon fill="#AFAA9E" points="193.5,75 188.5,60.8 177,65 "/>
<polygon fill="#AFAA9E" points="168.076,78.085 143.727,81.5 167.916,69.417 "/>
<polygon fill="#AFAA9E" points="173,53.5 188.5,60.8 152.065,66.24 "/>
<polygon fill="#A3A098" points="188.5,60.8 143.727,81.5 152.396,65.633 "/>
<polygon fill="#F4ECD7" points="143.727,81.5 139.5,129.167 152.396,77.492 "/>
<polygon fill="#5E4A35" points="233,261 213,189 240,173 "/>
<polygon fill="#B29A64" points="157.262,91.958 159.98,88.711 155.066,88.958 "/>
<polygon fill="#231E19" points="129,121 136.364,116 139.5,129.167 "/>
</svg>
