<?xml version="1.0" encoding="utf-8"?>
<!-- Generator: Adobe Illustrator 17.0.0, SVG Export Plug-In . SVG Version: 6.00 Build 0)  -->
<!DOCTYPE svg PUBLIC "-//W3C//DTD SVG 1.1//EN" "http://www.w3.org/Graphics/SVG/1.1/DTD/svg11.dtd">
<svg version="1.1" id="Layer_1" xmlns="http://www.w3.org/2000/svg" xmlns:xlink="http://www.w3.org/1999/xlink" x="0px" y="0px"
	 width="500px" height="300px" viewBox="0 0 500 300" enable-background="new 0 0 500 300" xml:space="preserve">
<polygon fill="#75614E" points="377.917,243.833 401.75,154.586 374.5,180.667 "/>
<polygon fill="#7C6755" points="400.75,128 352.5,129.167 383.314,185.083 "/>
<polygon fill="#7C6755" points="384,175.76 377.046,227.737 333.5,224.5 "/>
<polygon fill="#6B5747" points="401.75,154.586 382.957,183.554 400.75,128 "/>
<polygon fill="#3F3228" points="397,116.25 400.848,128.292 358.167,117.5 "/>
<polygon fill="#2D241D" points="397.417,116.5 377.115,107.917 358.313,117.813 "/>
<polygon fill="#5E4C3F" points="364.25,143.75 400.848,127.8 352.25,129 "/>
<polygon fill="#44372E" points="400.75,128 352.5,129.167 358.833,117.5 "/>
<polygon fill="#6B5747" points="400.94,127.611 364.25,143.75 394.267,142.999 "/>
<polygon fill="#2D241D" points="307.083,223.167 313.833,242.5 353.833,131.507 "/>
<polygon fill="#75614E" points="352.5,129.167 313.833,242.5 383.314,183.25 "/>
<polygon fill="#44372E" points="401.75,154.586 377.917,243.833 394,243.833 "/>
<polygon fill="#2D241D" points="214.333,225.75 195.677,178.662 240.667,209.136 "/>
<polygon fill="#3F3228" points="348.833,117.5 352.5,129.167 359.67,117.098 "/>
<polygon fill="#44372E" points="400.75,128 395.75,116.25 406.5,116.25 "/>
<polygon fill="#070707" points="368.375,124.156 366.313,120.781 364.25,124.156 "/>
<polygon fill="#070707" points="373.689,129.304 383.314,129.167 378.501,135.858 "/>
<polygon fill="#070707" points="386.5,123.333 388.5,119.781 390.917,123.333 "/>
<polygon fill="#44372E" points="331.25,242.5 313.833,242.5 333.5,225.75 "/>
<polygon fill="#44372E" points="307.083,223.167 322.5,147 348.574,142.667 "/>
<polygon fill="#3F3228" points="307.083,223.167 253.25,216.75 323.667,147 "/>
<polygon fill="#44372E" points="323.667,147 246,226.833 268.73,125.771 "/>
<polygon fill="#3F3228" points="247.167,230.25 268.73,125.771 219.167,132.512 "/>
<polygon fill="#3F3228" points="230.75,239 257.5,239 198.125,161.125 "/>
<polygon fill="#44372E" points="247.167,225.75 176.5,161.125 219.167,132.512 "/>
<polygon fill="#3F3228" points="122.5,237.333 198.125,180.32 176.5,161.125 "/>
<polygon fill="#44372E" points="122.5,237.333 170.167,212.167 201.667,176.302 "/>
<polygon fill="#44372E" points="195.677,237.333 197.348,179.631 220.25,237.333 "/>
<polygon fill="#44372E" points="122.5,237.333 144.486,207.577 92.167,241.167 "/>
<polygon fill="#3F3228" points="92.167,241.167 115.054,226.473 51.833,242.5 "/>
</svg>
