<svg xmlns="http://www.w3.org/2000/svg" xmlns:xlink="http://www.w3.org/1999/xlink" version="1.1" x="0px" y="0px" width="500px" height="300px" viewBox="0 0 500 300" enable-background="new 0 0 500 300" xml:space="preserve"><g id="Layer_2_1_" display="none"><rect x="-8.833" y="-18.167" display="inline" fill="#27292B" stroke="#000000" stroke-miterlimit="10" width="514" height="326.667"/></g><g id="Layer_1"><g id="Layer_2" display="none"><image display="inline" overflow="visible" enable-background="new    " width="400" height="385" xlink:href="../species/4 Tibetan Antelope .jpg" transform="matrix(0.8615 0 0 0.8615 76.8731 -19.1667)"></image></g><g id="Layer_1_1_"><polygon fill="#EFE8E8" points="139.5,156.833 134.833,203.833 125.833,173.833"/><polygon fill="#F4EEED" points="148.371,213.375 134.704,203.833 137.219,178.51"/><polygon fill="#B2B1B1" points="169.333,227 137.348,178.51 155.5,221"/><polygon fill="#EAE1DC" points="153.691,238.438 153.691,279.5 144.799,246.25"/><polygon fill="#EFE8E8" points="144.799,246.25 169.333,227 155.5,221"/><polygon fill="#F4EEED" points="179.583,243 190.333,215.974 137.348,178.51"/><polygon fill="#EAE1DC" points="192.917,280.667 171.778,254.061 179.583,243"/><polygon fill="#EFE8E8" points="179.583,243 171.778,254.061 169.333,227"/><polygon fill="#EFE8E8" points="136.375,179.75 139.5,156.833 183.254,144.069"/><polygon fill="#F4EEED" points="183.254,144.069 190.333,217.115 137.348,178.875"/><polygon fill="#EFE8E8" points="189.667,216.75 253.215,142.75 182.5,144.083"/><polygon fill="#DDD1CD" points="264.5,255.079 264.5,221.079 252.5,219.667"/><polygon fill="#EAE1DC" points="250.271,143.063 267.938,221.313 189.667,216.75"/><polygon fill="#EFE8E8" points="264.5,255.079 257.37,280.745 255.379,228.163"/><polygon fill="#DDD1CD" points="282.5,253.5 279.625,203.592 264.5,221"/><polygon fill="#EFE8E8" points="274.833,239.273 277.201,279.5 282.5,253.5"/><polygon fill="#EFE8E8" points="264.5,221 250,142.75 315,131"/><polygon fill="#F4EEED" points="313.354,131.832 331.184,144.25 264.5,221"/><polygon fill="#EFE8E8" points="302.302,115.978 312.333,112.333 298.829,103.477"/><polygon fill="#EFE8E8" points="336.559,116.956 327.442,113.25 341.09,103.477"/><polygon fill="#EAE1DC" points="302.302,115.978 319.825,108.164 311.658,155.5"/><polygon fill="#EAE1DC" points="330.262,155.5 336.559,116.956 319.825,108.164"/><polygon fill="#BFB1AF" points="315.704,132.972 313.354,127.514 316.646,127.514"/><polygon fill="#BFB1AF" points="327.442,127.514 323.856,127.514 325.06,132.972"/><polygon fill="#565656" points="345.75,51 323.542,125.822 322.08,119"/><polygon fill="#686868" points="326.941,105.036 345.75,51 353,9.5"/><polygon fill="#565656" points="318.188,119.219 317,126.406 286.947,50.266"/><polygon fill="#686868" points="330.262,155.5 319.825,108.164 311.658,155.5"/><polygon fill="#686868" points="311.658,104.86 274.75,9.5 287.167,51"/><polygon fill="#565656" points="311.658,155.5 330.262,155.5 320.96,144.25"/></g></g></svg>