<?xml version="1.0" encoding="utf-8"?>
<!-- Generator: Adobe Illustrator 17.0.0, SVG Export Plug-In . SVG Version: 6.00 Build 0)  -->
<!DOCTYPE svg PUBLIC "-//W3C//DTD SVG 1.1//EN" "http://www.w3.org/Graphics/SVG/1.1/DTD/svg11.dtd">
<svg version="1.1" id="Layer_1" xmlns="http://www.w3.org/2000/svg" xmlns:xlink="http://www.w3.org/1999/xlink" x="0px" y="0px"
	 width="500px" height="300px" viewBox="0 0 500 300" enable-background="new 0 0 500 300" xml:space="preserve">
<g id="Layer_1_1_">
	<polygon fill="#565656" points="376.847,150 382,197.5 374.806,178.167 	"/>
	<polygon fill="#F2E9E2" points="373.75,132 374.806,178.167 380,106.5 	"/>
	<polygon fill="#EDD8CA" points="367.5,157.5 321.171,150 380,106.5 	"/>
	<polygon fill="#F2D8C7" points="321.171,150 380,106.5 343.154,78.482 	"/>
	<polygon fill="#F2E9E2" points="367.5,157.5 374.631,216.132 321.171,150 	"/>
	<polygon fill="#F7F2F0" points="370.033,272 374.631,216.132 355.82,192.449 	"/>
	<polygon fill="#AAA9A9" points="362.25,272 370.033,272 365.225,241.75 	"/>
	<polygon fill="#E2D3C9" points="355.82,192.449 321.171,150 357.5,222.25 	"/>
	<polygon fill="#F2E9E2" points="357.5,222.25 344.048,195.497 351.5,272 	"/>
	<polygon fill="#AAA9A9" points="351.5,272 342.25,272 348.722,243.486 	"/>
	<polygon fill="#EFD0BF" points="343.154,78.482 208.5,91 321.171,150 	"/>
	<polygon fill="#F2D8C7" points="208.5,91 241.479,164.382 321.171,150 	"/>
	<polygon fill="#F7F2F0" points="328.403,164.382 321.171,150 196.5,172.5 	"/>
	<polygon fill="#F2E4DA" points="208.5,91 196.5,172.5 241.479,164.382 	"/>
	<polygon fill="#E2D3C9" points="203.5,271.808 196.5,172.5 208.625,170.312 	"/>
	<polygon fill="#F4EEEA" points="196.5,172.5 211.75,271.808 216.75,168.845 	"/>
	<polygon fill="#AAA9A9" points="208.625,249.285 211.75,271.808 203.5,271.808 	"/>
	<polygon fill="#AAA9A9" points="203.5,271.808 196.5,271.808 201.981,250.251 	"/>
	<polygon fill="#F4EBE6" points="208.5,91 163.25,74.5 196.5,172.5 	"/>
	<polygon fill="#F2E4DA" points="196.5,172.5 136.5,110 163.25,74.5 	"/>
	<polygon fill="#E2CBBC" points="169.333,45.5 164.278,72.466 161,61.583 	"/>
	<polygon fill="#F2E4DA" points="169.333,89.25 161,61.583 141,61.583 	"/>
	<polygon fill="#F7F2F0" points="141,61.583 155,147 169.333,89.25 	"/>
	<polygon fill="#565656" points="157,88.025 162,89.25 161.375,92.485 	"/>
	<polygon fill="#F7F2F0" points="143,146.75 141,61.583 155,147 	"/>
	<polygon fill="#E2CBBC" points="155,147 143,146.75 162.083,127.691 	"/>
	<polygon fill="#F2E4DA" points="131,87 141,61.583 143,146.75 	"/>
	<polygon fill="#EADAD3" points="143,146.75 137,127.691 162.083,127.691 	"/>
	<polygon fill="#565656" points="140.25,88.388 134.776,89.762 135.323,92.485 	"/>
	<polygon fill="#E2CBBC" points="141,61.583 136.718,72.466 131,45.5 	"/>
</g>
</svg>
