<?xml version="1.0" encoding="utf-8"?>
<!-- Generator: Adobe Illustrator 17.0.0, SVG Export Plug-In . SVG Version: 6.00 Build 0)  -->
<!DOCTYPE svg PUBLIC "-//W3C//DTD SVG 1.1//EN" "http://www.w3.org/Graphics/SVG/1.1/DTD/svg11.dtd">
<svg version="1.1" id="Layer_1" xmlns="http://www.w3.org/2000/svg" xmlns:xlink="http://www.w3.org/1999/xlink" x="0px" y="0px"
	 width="500px" height="300px" viewBox="0 0 500 300" enable-background="new 0 0 500 300" xml:space="preserve">
<polygon fill="#181413" points="127.708,91.577 135.789,182.796 106.25,200.074 "/>
<polygon fill="#211B1A" points="249.962,80.97 204.41,112.082 273.844,240.946 "/>
<polygon fill="#181413" points="300.114,272.248 340.615,220.376 223.572,193.385 "/>
<polygon fill="#211B1A" points="185.115,258.317 189.945,229.985 126.315,178.058 "/>
<polygon fill="#211B1A" points="314.516,41.873 203.229,113.127 275.777,22.465 "/>
<polygon fill="#2B2322" points="203.229,270.578 204.413,108.822 264.286,203.422 "/>
<polygon fill="#2B2322" points="226.637,51.262 203.229,114.428 275.777,22.465 "/>
<polygon fill="#211B1A" points="340.615,216.479 300.114,272.248 344.536,272.248 "/>
<polygon fill="#211B1A" points="254.783,270.578 264.375,202.795 203.229,270.578 "/>
<polygon fill="#211B1A" points="205.179,111.734 168.952,49.59 226.637,51.262 "/>
<polygon fill="#2B2322" points="168.952,49.59 127.708,91.577 205.626,111.389 "/>
<polygon fill="#2B2322" points="141.642,258.317 126.315,178.058 186.229,258.317 "/>
<polygon fill="#2B2322" points="126.315,178.058 191.018,234.317 127.708,91.577 "/>
<polygon fill="#211B1A" points="205.179,110.69 203.461,270.578 127.708,91.577 "/>
<polygon fill="#211B1A" points="344.594,217.566 314.234,41.787 267.699,204.991 "/>
<polygon fill="#211B1A" points="344.662,217.158 307.917,240.946 267.593,204.22 "/>
<polygon fill="#181413" points="259.274,95.378 236.887,91.577 250.731,78.95 "/>
<polygon fill="#2B2322" points="267.788,205.647 314.516,41.873 248.095,72.097 "/>
<polygon fill="#181413" points="384.686,82.473 363.395,93.33 370.15,76.119 "/>
<polygon fill="#2B2322" points="313.897,41.577 344.423,218.211 369.665,68.238 "/>
<polygon fill="#181413" points="281.908,138.765 346.56,138.765 312.376,49.59 "/>
<polygon fill="#211B1A" points="372.384,72.978 346.56,138.765 312.376,49.59 "/>
<polygon fill="#211B1A" points="246.98,74.392 312.376,49.59 281.908,138.765 "/>
<polygon fill="#B7AB8F" points="284.88,138.765 340.615,138.765 332.812,201.188 "/>
<polygon fill="#C1B69A" points="332.812,201.188 293.054,201.188 284.88,138.765 "/>
<polygon fill="#E2D9C9" points="293.054,201.188 332.812,201.188 312.933,175.3 "/>
<polygon fill="#C1B69A" points="223.572,25.066 241.184,67.679 228.449,65.335 "/>
<polygon fill="#AFA07E" points="258.72,69.939 250.856,81.534 228.449,65.335 "/>
<polygon fill="#C1B69A" points="394.399,63.523 398.833,25.066 382.416,67.1 "/>
<polygon fill="#AFA07E" points="369.364,80.67 394.399,63.523 362.442,69.103 "/>
</svg>
