<?xml version="1.0" encoding="utf-8"?>
<!-- Generator: Adobe Illustrator 17.0.0, SVG Export Plug-In . SVG Version: 6.00 Build 0)  -->
<!DOCTYPE svg PUBLIC "-//W3C//DTD SVG 1.1//EN" "http://www.w3.org/Graphics/SVG/1.1/DTD/svg11.dtd">
<svg version="1.1" id="Capa_1" xmlns="http://www.w3.org/2000/svg" xmlns:xlink="http://www.w3.org/1999/xlink" x="0px" y="0px"
	 width="400px" height="400px" viewBox="0 0 400 400" enable-background="new 0 0 400 400" xml:space="preserve">
<g>
	<g>
		<g>
			<path fill="#161616" d="M0,200c0,110.48,89.52,200,200,200c110.454,0,200-89.52,200-200C400,89.546,310.454,0,200,0
				C89.52,0,0,89.546,0,200z M133.439,200.001c-0.027-3.413,1.226-6.854,3.893-9.467l86.48-86.48c5.199-5.2,13.653-5.199,18.853,0
				s5.2,13.653,0,18.853L165.572,200l77.094,77.094c5.2,5.173,5.2,13.653,0,18.853c-5.199,5.173-13.653,5.173-18.853,0l-86.48-86.48
				C134.72,206.854,133.44,203.44,133.439,200.001z"/>
		</g>
	</g>
</g>
</svg>
