<?xml version="1.0" encoding="utf-8"?>
<!-- Generator: Adobe Illustrator 17.0.0, SVG Export Plug-In . SVG Version: 6.00 Build 0)  -->
<!DOCTYPE svg PUBLIC "-//W3C//DTD SVG 1.1//EN" "http://www.w3.org/Graphics/SVG/1.1/DTD/svg11.dtd">
<svg version="1.1" id="Capa_1" xmlns="http://www.w3.org/2000/svg" xmlns:xlink="http://www.w3.org/1999/xlink" x="0px" y="0px"
	 width="400px" height="400px" viewBox="0 0 400 400" enable-background="new 0 0 400 400" xml:space="preserve">
<g>
	<g>
		<g>
			<path fill="#161616" d="M200,0C89.546,0,0,89.546,0,200c0,110.48,89.546,200,200,200c110.48,0,200-89.52,200-200
				C400,89.546,310.48,0,200,0z M262.667,209.467l-86.48,86.48c-5.2,5.173-13.654,5.173-18.853,0c-5.2-5.2-5.2-13.68,0-18.853
				L234.428,200l-77.093-77.093c-5.2-5.2-5.2-13.654,0-18.853s13.654-5.2,18.853,0l86.48,86.48c2.667,2.613,3.92,6.054,3.893,9.467
				C266.56,203.44,265.28,206.854,262.667,209.467z"/>
		</g>
	</g>
</g>
</svg>
