<?xml version="1.0" encoding="utf-8"?>
<!-- Generator: Adobe Illustrator 17.0.0, SVG Export Plug-In . SVG Version: 6.00 Build 0)  -->
<!DOCTYPE svg PUBLIC "-//W3C//DTD SVG 1.1//EN" "http://www.w3.org/Graphics/SVG/1.1/DTD/svg11.dtd">
<svg version="1.1" id="Layer_1" xmlns="http://www.w3.org/2000/svg" xmlns:xlink="http://www.w3.org/1999/xlink" x="0px" y="0px"
	 width="500px" height="300px" viewBox="0 0 500 300" enable-background="new 0 0 500 300" xml:space="preserve">
<polygon fill="#C69071" points="273.5,96.25 223.541,157.939 180.081,99.258 "/>
<polygon fill="#C6977D" points="222.915,41.5 273.5,96.25 172.25,96.25 "/>
<polygon fill="#DDBFB1" points="273.5,96.25 222.915,81.167 172.25,96.25 "/>
<polygon fill="#DDBFB1" points="224.167,115.307 172.25,96.25 273.5,96.25 "/>
<polygon fill="#F4B558" points="227,87.235 218.83,87.235 222.915,108.375 "/>
<polygon fill="#FFC44D" points="205.375,77.083 211.688,77.083 210.885,70.744 "/>
<polygon fill="#7C4E3C" points="173.997,271.583 182.048,253.695 166.312,153.764 "/>
<polygon fill="#6D402C" points="170.477,217.615 172.25,208.5 300.126,290.833 "/>
<polygon fill="#F7A83E" points="218.83,87.235 222.915,81.167 227,87.235 "/>
<polygon fill="#E8D4CD" points="246.532,218.968 223.541,157.939 208.351,177.667 "/>
<polygon fill="#C69071" points="186.833,53.833 172.25,96.25 222.915,41.5 "/>
<polygon fill="#C69071" points="273.5,96.25 222.915,41.5 260.5,53.833 "/>
<polygon fill="#C6977D" points="180.081,99.258 223.541,157.939 204.167,177.667 "/>
<polygon fill="#C6977D" points="335,266.5 300.126,277 313.763,217.208 "/>
<polygon fill="#DBAA91" points="255.252,143.609 313.763,217.208 300.126,277 "/>
<polygon fill="#DDBFB1" points="326.117,245.883 223.541,157.939 246.532,218.968 "/>
<polygon fill="#C6977D" points="273.5,96.25 302,124.25 223.541,157.939 "/>
<polygon fill="#DBAA91" points="186.833,53.833 183.833,63.333 222.875,73.625 "/>
<polygon fill="#DDBFB1" points="212.667,241.292 250,220.141 238.025,210.304 "/>
<polygon fill="#664536" points="204.167,177.667 208.351,177.667 223.541,157.939 "/>
<polygon fill="#C69071" points="294.725,172.116 223.541,157.939 302,124.25 "/>
<polygon fill="#E8D4CD" points="275.42,228.738 237.131,255.257 258.047,222.862 "/>
<polygon fill="#C69071" points="211.231,54.126 222.875,73.625 235,53.833 "/>
<polygon fill="#424242" points="218.989,237.71 212.667,241.292 219.5,247.25 "/>
<polygon fill="#424242" points="243.333,250.962 245.169,263.167 237.131,255.257 "/>
<polygon fill="#B27C60" points="344.25,255.257 293.167,169.5 302,124.25 "/>
<polygon fill="#C6977D" points="223.541,157.939 293.167,169.5 344.25,255.257 "/>
<polygon fill="#DBAA91" points="222.875,73.625 263.361,63.167 260.5,53.833 "/>
<polygon fill="#FFC44D" points="235.125,70.744 234.25,77.083 240.917,77.083 "/>
<polygon fill="#664536" points="223.541,157.939 344.25,255.257 320.881,244.112 "/>
</svg>
