<?xml version="1.0" encoding="utf-8"?>
<!-- Generator: Adobe Illustrator 17.0.0, SVG Export Plug-In . SVG Version: 6.00 Build 0)  -->
<!DOCTYPE svg PUBLIC "-//W3C//DTD SVG 1.1//EN" "http://www.w3.org/Graphics/SVG/1.1/DTD/svg11.dtd">
<svg version="1.1" id="Layer_1" xmlns="http://www.w3.org/2000/svg" xmlns:xlink="http://www.w3.org/1999/xlink" x="0px" y="0px"
	 width="500px" height="300px" viewBox="0 0 500 300" enable-background="new 0 0 500 300" xml:space="preserve">
<g id="Layer_1_1_">
	<polygon fill="#E4F99B" points="288.5,234.833 339.772,218.451 210.5,222.292 	"/>
	<polygon fill="#9BBF4C" points="301,259.5 408.75,167.75 348.917,224.505 	"/>
	<polygon fill="#AFE24D" points="312.167,201.167 301,122.5 387.5,150 	"/>
	<polygon fill="#ABE038" points="305,125.5 314.821,223.75 176.5,201.167 	"/>
	<polygon fill="#9BBF4C" points="383.457,147.917 379.833,133.5 315.996,113.165 	"/>
	<polygon fill="#B5E85D" points="391.333,146.833 307.139,203.591 306.5,223.75 	"/>
	<polygon fill="#AFE24D" points="355.144,216.003 306.5,223.75 408.75,167.75 	"/>
	<polygon fill="#ABE038" points="408.75,167.75 306.5,223.75 391.333,146.833 	"/>
	<polygon fill="#B5E85D" points="408.75,167.75 370.833,228.833 315.996,276.833 	"/>
	<polygon fill="#AAD35B" points="293.75,276.833 408.75,167.75 342.741,245.38 	"/>
	<polygon fill="#AAD35B" points="288.5,99 191.167,125.5 306,126.378 	"/>
	<polygon fill="#AFE24D" points="305,125.5 216.25,158.25 150.167,124.5 	"/>
	<polygon fill="#B5E85D" points="178,203.75 216.25,158.25 305,125.5 	"/>
	<polygon fill="#B5E85D" points="387.5,150 305,125.5 288.5,99 	"/>
	<polygon fill="#ABE038" points="106.167,187.167 216.25,158.25 181,202.5 	"/>
	<polygon fill="#9BBF4C" points="153.25,124.5 118.859,144.545 129.167,116 	"/>
	<polygon fill="#AAD35B" points="97.833,167.75 109.5,150 153.25,124.5 	"/>
	<polygon fill="#B5E85D" points="97.833,167.75 153.25,124.5 216.25,158.25 	"/>
	<polygon fill="#AFE24D" points="216.25,158.25 97.833,167.75 106.167,187.167 	"/>
	<polygon fill="#D3EF86" points="210.5,222.292 314.821,223.75 106.167,187.167 	"/>
	<polygon fill="#9BBF4C" points="239.261,254.951 241.5,248.31 191.167,252.652 	"/>
	<polygon fill="#B5E85D" points="239.261,259.693 191.167,266 240.38,251.63 	"/>
	<polygon fill="#ABE038" points="239.261,259.693 234.27,226.642 256.784,229.734 	"/>
	<polygon fill="#333333" points="137.01,179.065 132.235,162.375 161.249,176.562 	"/>
	<polygon fill="#333333" points="161.208,177 163.5,152.167 132.235,162.375 	"/>
	<polygon fill="#F0F01A" points="139.5,177 140.5,162.375 136.055,162.375 	"/>
	<polygon fill="#EAE426" points="138.704,173.836 138.5,177 158.667,174.625 	"/>
	<polygon fill="#EAE426" points="161.208,158.917 161.208,155.25 139.5,161.5 	"/>
	<polygon fill="#F0F01A" points="158.667,174.625 156.504,174.625 159.485,159.122 	"/>
	<polygon fill="#9BBF4C" points="175.647,210.558 181.94,212.677 141.667,213.333 	"/>
</g>
</svg>
