<svg xmlns="http://www.w3.org/2000/svg" xmlns:xlink="http://www.w3.org/1999/xlink" version="1.1" id="Layer_1" x="0px" y="0px" width="500px" height="300px" viewBox="0 0 500 300" enable-background="new 0 0 500 300" xml:space="preserve"><polygon fill="#F9F7F2" points="159.167,55.833 165.833,139.004 236.156,89.053"/><polygon fill="#EDEADD" points="165.833,59.625 156.319,30.819 149.833,64.357"/><polygon fill="#E8E4D1" points="187.621,116.678 149.833,64.357 148.167,92.5"/><polygon fill="#E8E4D1" points="181.833,53.167 187.621,116.678 149.833,64.357"/><polygon fill="#7F7970" points="171.859,78.414 170.323,73.575 163.929,74.247"/><polygon fill="#F8F8F8" points="153.052,95.493 174.715,108.769 176,88"/><polygon fill="#E8E4D1" points="181.833,53.167 173.712,116.605 212.5,61.5"/><polygon fill="#7F7970" points="193.773,73.575 191.023,78.414 199.189,74.331"/><polygon fill="#EDEADD" points="197.125,58.5 207.319,30.819 212.319,61.319"/><polygon fill="#E8E4D1" points="212.5,61.5 173.712,116.605 216.5,92.5"/><polygon fill="#7F7970" points="173.712,116.605 187.621,116.678 180.667,108.769"/><polygon fill="#F8F8F8" points="211.463,95.338 186.936,109.155 185.833,88"/><polygon fill="#FCFBF0" points="165.833,139.004 234,88 212.5,190.009"/><polygon fill="#F4F1EA" points="165.833,139.004 212.188,188.813 212.5,250.604"/><polygon fill="#FCFBF0" points="212.5,250.604 212.5,271.454 197.404,214"/><polygon fill="#F4F1EA" points="198.667,271.454 207,249.907 212.5,271.454"/><polygon fill="#F8F6F1" points="212.188,188.813 339.5,139.5 234,88"/><polygon fill="#E2DECC" points="309.679,178.526 290.819,158.319 212.188,188.813"/><polygon fill="#F4F1EA" points="233.07,180.438 212.188,188.813 229.667,259"/><polygon fill="#FCFBF0" points="221.329,225.49 229.667,259 227.833,278.536"/><polygon fill="#F4F1EA" points="214.824,278.167 224.995,253.649 227.833,278.536"/><polygon fill="#F4F1EA" points="301,246.809 303.436,179.013 266.044,182.823"/><polygon fill="#FCFBF0" points="311.167,240.5 301.667,214.999 299.24,278.536"/><polygon fill="#F4F1EA" points="299.24,278.536 290.061,279 300.662,247.803"/><polygon fill="#FCFBF0" points="233.458,88 339.5,139.5 315.25,95.249"/><polygon fill="#FCFBF0" points="290.819,158.319 329.5,199.75 339.5,139.5"/><polygon fill="#F4F1EA" points="329.55,199.446 339.5,238.5 291,158.5"/><polygon fill="#FCFBF0" points="342.5,279 339.5,238.5 303.436,179.013"/><polygon fill="#F4F1EA" points="342.5,279 330.192,246.809 329.621,282.015"/><polygon fill="#F4F1EA" points="332.753,177.836 339.5,139.5 368.5,228.854"/></svg>