<?xml version="1.0" encoding="utf-8"?>
<!-- Generator: Adobe Illustrator 17.0.0, SVG Export Plug-In . SVG Version: 6.00 Build 0)  -->
<!DOCTYPE svg PUBLIC "-//W3C//DTD SVG 1.1//EN" "http://www.w3.org/Graphics/SVG/1.1/DTD/svg11.dtd">
<svg version="1.1" id="Layer_1" xmlns="http://www.w3.org/2000/svg" xmlns:xlink="http://www.w3.org/1999/xlink" x="0px" y="0px"
	 width="500px" height="300px" viewBox="0 0 500 300" enable-background="new 0 0 500 300" xml:space="preserve">
<polygon fill="#2FA3CC" points="190.87,179.406 131.964,281.692 250,281.564 "/>
<polygon fill="#EF3737" points="308.906,179.406 250,281.692 368.036,281.564 "/>
<polygon fill="#1ABC9C" points="249.888,77.119 190.982,179.406 309.018,179.278 "/>
<polygon fill="#F1C40F" points="308.985,179.562 191.015,179.434 249.888,281.664 "/>
<polygon fill="#16A085" points="249.944,77.119 220.491,128.262 279.509,128.198 "/>
<polygon fill="#2ECCAE" points="220.435,128.262 190.982,179.406 250,179.342 "/>
<polygon fill="#66DDC6" points="279.453,128.262 250,179.406 309.018,179.342 "/>
<polygon fill="#6CCAEA" points="190.926,179.406 161.473,230.549 220.491,230.485 "/>
<polygon fill="#D35400" points="249.944,179.406 220.491,230.549 279.509,230.485 "/>
<polygon fill="#F27575" points="308.962,179.406 279.509,230.549 338.527,230.485 "/>
<polygon fill="#2D91C9" points="161.417,230.549 131.964,281.692 190.982,281.628 "/>
<polygon fill="#37BCDB" points="220.435,230.549 190.982,281.692 250,281.628 "/>
<polygon fill="#F44D4D" points="279.453,230.549 250,281.692 309.018,281.628 "/>
<polygon fill="#DD3636" points="338.471,230.549 309.018,281.692 368.036,281.628 "/>
<polygon fill="#16A085" points="249.972,128.262 235.245,153.834 264.755,153.802 "/>
<polygon fill="#F39C12" points="220.463,179.406 205.736,204.977 235.245,204.945 "/>
<polygon fill="#2C3E50" points="190.954,230.549 176.227,256.121 205.736,256.089 "/>
<polygon fill="#F39C12" points="279.481,179.406 264.755,204.977 294.264,204.945 "/>
<polygon fill="#F39C12" points="249.972,230.549 235.245,256.121 264.755,256.089 "/>
<polygon fill="#D12828" points="308.99,230.549 294.264,256.121 323.773,256.089 "/>
<polygon fill="#66DDC6" points="264.755,102.723 235.245,102.691 249.972,128.262 "/>
<polygon fill="#37BCDB" points="176.227,256.153 146.718,256.121 161.445,281.692 "/>
<polygon fill="#DD3636" points="294.264,256.153 264.755,256.121 279.481,281.692 "/>
<polygon fill="#6CCAEA" points="235.245,256.153 205.736,256.121 220.463,281.692 "/>
<polygon fill="#F1C40F" points="264.755,205.009 235.245,204.977 249.972,230.549 "/>
<polygon fill="#2FA3CC" points="205.736,205.009 176.227,204.977 190.954,230.549 "/>
<polygon fill="#1ABC9C" points="235.245,153.866 205.736,153.834 220.463,179.406 "/>
<polygon fill="#2ECCAE" points="294.264,153.866 264.755,153.834 279.481,179.406 "/>
<polygon fill="#F44D4D" points="323.773,205.009 294.264,204.977 308.99,230.549 "/>
<polygon fill="#F27575" points="353.282,256.153 323.773,256.121 338.499,281.692 "/>
</svg>
