<?xml version="1.0" encoding="utf-8"?>
<!-- Generator: Adobe Illustrator 17.0.0, SVG Export Plug-In . SVG Version: 6.00 Build 0)  -->
<!DOCTYPE svg PUBLIC "-//W3C//DTD SVG 1.1//EN" "http://www.w3.org/Graphics/SVG/1.1/DTD/svg11.dtd">
<svg version="1.1" id="Layer_1" xmlns="http://www.w3.org/2000/svg" xmlns:xlink="http://www.w3.org/1999/xlink" x="0px" y="0px"
	 width="500px" height="300px" viewBox="0 0 500 300" enable-background="new 0 0 500 300" xml:space="preserve">
<g id="Layer_1_1_">
	<polygon fill="#F4F0ED" points="304.689,227.833 275.917,242.435 251.598,222.5 	"/>
	<polygon fill="#F4F0ED" points="251.598,222.5 285.369,133.209 315.04,133.209 	"/>
	<polygon fill="#F7F6F5" points="251.598,222.5 167.833,153.833 285.369,133.209 	"/>
	<polygon fill="#F7F6F5" points="251.598,222.5 304.689,227.833 310.167,132.2 	"/>
	<polygon fill="#C9C9C9" points="258.285,91.222 287.902,120.055 293.833,115.5 	"/>
	<polygon fill="#C9C9C9" points="310.167,120.055 302.167,115.5 327.446,83.776 	"/>
	<polygon fill="#F7F6F5" points="280.5,115.5 318.671,115.643 293.833,164 	"/>
	<polygon fill="#F4F0ED" points="308.674,164 318.671,115.643 293.833,164 	"/>
	<polygon fill="#F4F0ED" points="151.167,227.833 167.833,153.833 275.917,242.435 	"/>
	<polygon fill="#565656" points="289.5,128.538 292.833,124.667 293.833,128.538 	"/>
	<polygon fill="#E5D9CF" points="251.598,222.5 151.167,227.833 275.917,242.435 	"/>
	<polygon fill="#F7F6F5" points="145.167,182.5 151.167,227.833 167.833,153.833 	"/>
	<polygon fill="#EDE6DF" points="195.167,286.598 216.502,235.481 182.384,231.487 	"/>
	<polygon fill="#EDE6DF" points="275.917,242.435 304.689,227.833 290.327,289 	"/>
	<polygon fill="#C9C9C9" points="252.907,50.557 264.451,48.276 241.679,24.833 	"/>
	<polygon fill="#C9C9C9" points="257.21,87.009 264.451,48.276 282.193,88.869 	"/>
	<polygon fill="#E5E5E5" points="248.71,84.683 282.193,81.512 293.833,115.5 	"/>
	<polygon fill="#E5E5E5" points="277.211,77.302 238.636,53.377 267.599,47.5 	"/>
	<polygon fill="#E5E5E5" points="258.285,41.929 226.673,28.611 241.679,24.833 	"/>
	<polygon fill="#C9C9C9" points="322.766,19.484 309.987,47.237 320.873,45.655 	"/>
	<polygon fill="#EDE6DF" points="151.167,227.833 163.167,289 184.477,226.064 	"/>
	<polygon fill="#E5E5E5" points="322.766,19.484 337.171,18.144 313.447,39.722 	"/>
	<polygon fill="#EDE6DF" points="258,289 275.917,242.435 251.598,222.5 	"/>
	<polygon fill="#E5D9CF" points="148.444,203.75 145.167,182.5 137.75,232.467 	"/>
	<polygon fill="#565656" points="297.138,156.633 300.913,162.067 304.689,156.633 	"/>
	<polygon fill="#565656" points="307,124.667 310.167,128.538 306.252,128.538 	"/>
	<polygon fill="#C9C9C9" points="306.978,88.543 309.987,47.237 322.766,77.539 	"/>
	<polygon fill="#E5E5E5" points="335,74 305.25,112.5 305.25,82.625 	"/>
	<polygon fill="#E5E5E5" points="306.97,47.532 334.332,43.699 307.77,76.797 	"/>
	<polygon fill="#F4F0ED" points="280.5,115.5 318.671,115.643 299.586,105 	"/>
</g>
</svg>
