<svg xmlns="http://www.w3.org/2000/svg" xmlns:xlink="http://www.w3.org/1999/xlink" version="1.1" id="Layer_1" x="0px" y="0px" width="500px" height="300px" viewBox="0 0 500 300" enable-background="new 0 0 500 300" xml:space="preserve"><polygon fill="#CEB58D" points="241.092,276.167 267.859,280.083 268.175,193.038"/><polygon fill="#B79F7B" points="241.092,276.167 268.175,193.038 236.282,196.544"/><polygon fill="#684931" points="359.5,183 173,203.5 153,193.25"/><polygon fill="#262626" points="249,149.583 221.668,136.499 221.699,197.167"/><polygon fill="#262626" points="266.699,126.167 281.634,191.559 245.125,150.625"/><polygon fill="#333333" points="281.366,190.383 225.026,190.833 247,149"/><polygon fill="#A9A792" points="228.173,184.841 220.352,188.75 223.167,203.5"/><polygon fill="#A9A792" points="279.625,200.25 274.669,183 282.796,186.318"/><polygon fill="#262626" points="204.672,145 223.167,184.167 208.5,115"/><polygon fill="#333333" points="221.699,100.667 222.178,182.073 208.5,115"/><polygon fill="#333333" points="274.669,102.5 252,95.5 278.157,176.333"/><polygon fill="#262626" points="286.5,121 278.157,183 274.234,102.404"/><polygon fill="#E56D1C" points="247,149 266.699,126.167 221.692,137.583"/><polygon fill="#EF7D30" points="221.699,137.875 220.352,79 266.699,126.167"/><polygon fill="#E56D1C" points="268.092,65.012 264.833,91.167 252,41.333"/><polygon fill="#EF7D30" points="268.092,96.75 254.5,87.667 252,41.333"/><polygon fill="#E07127" points="263.083,126.167 252,41.333 220.352,79"/><polygon fill="#E07127" points="252,41.333 215.339,34.5 255.255,66.25"/><polygon fill="#EF7D30" points="241.718,55.358 217.053,35.855 229.385,70.454"/><polygon fill="#EF7D30" points="220.352,79 251.333,70.454 209.333,64.833"/><polygon fill="#D65D4D" points="239.677,56 222.028,49 230.222,61.397"/><polygon fill="#EFEFEF" points="234.485,56 230.688,58.192 228.188,53.808"/><polygon fill="#D65D4D" points="222.178,49.22 198.031,44.929 217.053,35.855"/><polygon fill="#EA833D" points="222.178,49 185.833,56 198.667,44.929"/><polygon fill="#EAC271" points="166.5,80.667 188.75,55.358 222.178,49"/><polygon fill="#EAB178" points="230.434,61.333 166.35,80.667 222.028,49"/><polygon fill="#EAA97D" points="229.385,68.249 166.5,80.667 230.284,60.894"/><polygon fill="#F2D8AA" points="198.392,62.528 166.5,80.667 182.446,62.529"/><polygon fill="#EFC9A3" points="198.392,62.528 203.83,69.094 166.5,80.667"/><polygon fill="#EAB692" points="204.006,73.26 203.83,69.094 166.5,80.667"/></svg>