<?xml version="1.0" encoding="utf-8"?>
<!-- Generator: Adobe Illustrator 17.0.0, SVG Export Plug-In . SVG Version: 6.00 Build 0)  -->
<!DOCTYPE svg PUBLIC "-//W3C//DTD SVG 1.1//EN" "http://www.w3.org/Graphics/SVG/1.1/DTD/svg11.dtd">
<svg version="1.1" id="Layer_1" xmlns="http://www.w3.org/2000/svg" xmlns:xlink="http://www.w3.org/1999/xlink" x="0px" y="0px"
	 width="500px" height="300px" viewBox="0 0 500 300" enable-background="new 0 0 500 300" xml:space="preserve">
<polygon fill="#565656" points="375.335,5.5 346.5,24.07 355.169,10.333 "/>
<polygon fill="#565656" points="14,165.167 26,142.337 39.875,142.337 "/>
<polygon fill="#565656" points="281.792,48.998 300,11.352 281.792,31.823 "/>
<polygon fill="#565656" points="465.833,30.175 476.167,20.5 457.5,10.333 "/>
<polygon fill="#565656" points="8.788,138.613 17,100 7,116.5 "/>
<polygon fill="#565656" points="42.018,8.774 44.5,17 26,7.5 "/>
<polygon fill="#565656" points="189.822,284.902 201.833,269.167 174.167,284.902 "/>
<polygon fill="#565656" points="193.5,25.865 161.167,7.5 193.5,13.14 "/>
<polygon fill="#565656" points="486,67.963 474.393,54 491,49 "/>
<polygon fill="#565656" points="214.5,277 240,292.5 218,292.5 "/>
<polygon fill="#565656" points="437.814,30.175 425,25.865 426.5,13.153 "/>
<polygon fill="#565656" points="7,47 17,60.5 7,87 "/>
<polygon fill="#565656" points="35.25,276.25 23,261.333 12,271 "/>
<polygon fill="#565656" points="250,17 211,41.5 259.5,20.254 "/>
<polygon fill="#565656" points="311,10.333 323,21.664 325.375,10.333 "/>
<polygon fill="#565656" points="492.485,151 471.5,171.5 474.393,158.5 "/>
<polygon fill="#565656" points="476.167,142.337 474.393,131 491,111.5 "/>
<polygon fill="#565656" points="457.429,185 486.601,186.5 499.404,205.5 "/>
<polygon fill="#565656" points="477.568,217.5 442.583,216.5 461.25,229.5 "/>
<polygon fill="#565656" points="35.25,223 44.5,206.5 35.25,198.208 "/>
<polygon fill="#565656" points="137,38.813 130.126,30.175 141.958,12.917 "/>
<polygon fill="#565656" points="480.5,292.5 491,284.75 495.5,254.5 "/>
<polygon fill="#565656" points="72.625,34.988 79,13.153 70.571,13.154 "/>
<polygon fill="#565656" points="288,292.5 254,290 302.5,277 "/>
<polygon fill="#565656" points="486.5,91.471 465.833,87 491,100 "/>
<polygon fill="#565656" points="387.5,292.5 387.5,282.874 355.169,290 "/>
<polygon fill="#565656" points="319.75,273.5 323.5,290 331,248 "/>
<polygon fill="#565656" points="464.466,273.167 442.583,282.874 460.5,254.5 "/>
<polygon fill="#565656" points="70.571,277 68.374,261.333 56.5,277 "/>
<polygon fill="#565656" points="117.302,266 117.833,277 100.5,286.5 "/>
</svg>
