<?xml version="1.0" encoding="utf-8"?>
<!-- Generator: Adobe Illustrator 17.0.0, SVG Export Plug-In . SVG Version: 6.00 Build 0)  -->
<!DOCTYPE svg PUBLIC "-//W3C//DTD SVG 1.1//EN" "http://www.w3.org/Graphics/SVG/1.1/DTD/svg11.dtd">
<svg version="1.1" id="Capa_1" xmlns="http://www.w3.org/2000/svg" xmlns:xlink="http://www.w3.org/1999/xlink" x="0px" y="0px"
	 width="511.626px" height="511.626px" viewBox="0 0 511.626 511.626" enable-background="new 0 0 511.626 511.626"
	 xml:space="preserve">
<g>
	<g>
		<path fill="#C0392B" d="M249.014,261.881c4.667-11.06,8.623-19.736,11.871-26.027c2.435-4.667,4.72-8.599,6.851-11.796
			c2.129-3.197,4.718-6.317,7.761-9.361c3.047-3.045,6.546-5.33,10.505-6.851c3.955-1.522,8.368-2.283,13.242-2.283h38.963v29.225
			c0,1.319,0.481,2.461,1.445,3.424c0.963,0.964,2.105,1.446,3.423,1.446c1.423,0,2.59-0.455,3.499-1.369l48.709-48.706
			c0.916-0.914,1.372-2.08,1.372-3.501c0-1.421-0.456-2.587-1.372-3.505l-48.556-48.556c-1.215-1.014-2.437-1.519-3.653-1.519
			c-1.423,0-2.587,0.456-3.503,1.37c-0.908,0.913-1.365,2.079-1.365,3.5v29.223h-38.963c-6.902,0-13.395,0.839-19.485,2.513
			c-6.09,1.674-11.494,3.804-16.212,6.393c-4.719,2.588-9.285,6.063-13.7,10.427c-4.414,4.362-8.17,8.575-11.263,12.634
			c-3.094,4.058-6.343,9.131-9.741,15.22c-3.398,6.088-6.138,11.416-8.219,15.982c-2.081,4.567-4.592,10.199-7.534,16.896
			c-4.669,11.06-8.626,19.737-11.873,26.028c-2.435,4.667-4.72,8.6-6.849,11.797c-2.13,3.197-4.72,6.316-7.763,9.36
			c-3.045,3.047-6.546,5.331-10.503,6.853c-3.956,1.522-8.372,2.284-13.242,2.284h-34.095c-1.421,0-2.589,0.453-3.501,1.368
			c-0.911,0.912-1.369,2.077-1.369,3.499v29.228c0,1.42,0.46,2.587,1.373,3.503c0.914,0.913,2.082,1.369,3.501,1.369h34.096
			c6.902,0,13.395-0.839,19.484-2.514c6.088-1.675,11.493-3.806,16.21-6.393c4.72-2.589,9.285-6.065,13.7-10.429
			c4.413-4.36,8.17-8.575,11.264-12.632c3.093-4.06,6.341-9.132,9.741-15.22c3.398-6.09,6.139-11.417,8.219-15.983
			C243.561,274.21,246.072,268.58,249.014,261.881z"/>
		<path fill="#C0392B" d="M128.763,205.561h34.096c4.465,0,8.599,0.736,12.405,2.209c3.806,1.472,7.002,3.247,9.589,5.329
			c2.588,2.081,5.175,4.947,7.763,8.599c2.587,3.655,4.642,6.877,6.165,9.666c1.521,2.791,3.398,6.471,5.631,11.036
			c7.815-18.367,14.764-32.218,20.853-41.554c-16.236-22.831-37.038-34.249-62.407-34.249h-34.095c-1.421,0-2.589,0.456-3.501,1.37
			c-0.911,0.912-1.369,2.078-1.369,3.499v29.225c0,1.422,0.456,2.586,1.369,3.499C126.177,205.106,127.344,205.561,128.763,205.561z
			"/>
		<path fill="#C0392B" d="M346.731,270.408c-1.219-1.014-2.437-1.518-3.656-1.518c-1.419,0-2.587,0.454-3.499,1.368
			c-0.912,0.912-1.368,2.08-1.368,3.499v29.228h-38.967c-4.467,0-8.6-0.737-12.406-2.211c-3.806-1.471-7.003-3.246-9.589-5.328
			c-2.585-2.08-5.174-4.947-7.761-8.602c-2.589-3.653-4.645-6.876-6.167-9.668c-1.52-2.786-3.398-6.47-5.63-11.032
			c-7.813,18.264-14.712,32.116-20.7,41.554c2.739,3.957,5.58,7.483,8.523,10.576c2.942,3.094,5.733,5.809,8.371,8.144
			c2.638,2.332,5.632,4.364,8.98,6.086c3.35,1.726,6.291,3.171,8.83,4.339c2.544,1.167,5.736,2.105,9.591,2.816
			c3.855,0.708,7.102,1.244,9.741,1.595c2.638,0.354,6.241,0.609,10.808,0.763c4.565,0.153,8.269,0.2,11.107,0.153
			c2.844-0.051,6.955-0.106,12.333-0.153c5.379-0.05,9.692-0.077,12.94-0.077v29.225c0,1.319,0.481,2.461,1.445,3.424
			c0.963,0.964,2.105,1.445,3.423,1.445c1.423,0,2.59-0.456,3.499-1.368l48.709-48.705c0.912-0.916,1.368-2.08,1.368-3.503
			c0-1.421-0.456-2.587-1.372-3.499L346.731,270.408z"/>
	</g>
</g>
</svg>
