<?xml version="1.0" encoding="utf-8"?>
<!-- Generator: Adobe Illustrator 17.0.0, SVG Export Plug-In . SVG Version: 6.00 Build 0)  -->
<!DOCTYPE svg PUBLIC "-//W3C//DTD SVG 1.1//EN" "http://www.w3.org/Graphics/SVG/1.1/DTD/svg11.dtd">
<svg version="1.1" xmlns="http://www.w3.org/2000/svg" xmlns:xlink="http://www.w3.org/1999/xlink" x="0px" y="0px" width="50px"
	 height="50px" viewBox="0 0 50 50" enable-background="new 0 0 50 50" xml:space="preserve">
<g id="Layer_2_1_" display="none">
	<rect display="inline" fill="#3788D1" width="50" height="50"/>
</g>
<g id="Layer_3" display="none">
	<polygon display="inline" fill="#FFFFFF" points="16.95,21.17 0,21.17 0,12.043 16.95,12.043 25.08,32.829 38.272,32.829 
		38.272,38.274 25.08,38.274 	"/>
	
		<rect x="33.419" y="36.208" transform="matrix(0.7071 -0.7071 0.7071 0.7071 -15.5665 37.5504)" display="inline" fill="#FFFFFF" width="8.251" height="2.716"/>
	
		<rect x="33.621" y="31.82" transform="matrix(-0.7071 -0.7071 0.7071 -0.7071 39.8323 82.8397)" display="inline" fill="#FFFFFF" width="6.903" height="2.701"/>
	<polygon display="inline" fill="#FFFFFF" points="16.95,29.147 0,29.147 0,38.274 16.95,38.274 25.08,17.489 38.272,17.489 
		38.272,12.043 25.08,12.043 	"/>
	
		<rect x="33.419" y="11.394" transform="matrix(0.7071 0.7071 -0.7071 0.7071 20.0133 -22.8128)" display="inline" fill="#FFFFFF" width="8.251" height="2.716"/>
	
		<rect x="33.621" y="15.797" transform="matrix(-0.7071 0.7071 -0.7071 -0.7071 75.4121 3.0576)" display="inline" fill="#FFFFFF" width="6.903" height="2.701"/>
</g>
<g id="Layer_4">
	<polygon opacity="0.7" fill="#FFFFFF" points="0,12.043 16.95,12.043 20.62,21.426 25.08,12.043 34.915,12.043 33.667,10.795 
		35.587,8.875 41.421,14.709 35.587,20.543 33.677,18.633 34.821,17.489 25.08,17.489 22.08,25.159 25.08,32.829 34.821,32.829 
		33.677,31.685 35.587,29.775 41.421,35.609 35.587,41.443 33.667,39.522 34.915,38.274 25.08,38.274 20.62,28.891 16.95,38.274 
		0,38.274 0,50 50,50 50,0 0,0 	"/>
	<polygon opacity="0.7" fill="#FFFFFF" points="0,29.147 16.95,29.147 18.846,25.159 16.95,21.17 0,21.17 	"/>
</g>
</svg>
