<svg xmlns="http://www.w3.org/2000/svg" xmlns:xlink="http://www.w3.org/1999/xlink" version="1.1" id="Layer_1" x="0px" y="0px" width="500px" height="300px" viewBox="0 0 500 300" enable-background="new 0 0 500 300" xml:space="preserve"><polygon fill="#292E30" points="97.667,77.249 144.611,100 170.89,77.249"/><polygon fill="#202628" points="67.833,79.667 170.89,77.249 97.375,68.25"/><polygon fill="#1A1F21" points="86.5,55.083 170.89,77.249 56.5,65.004"/><polygon fill="#161A1C" points="170.89,77.249 40.5,46.75 82.833,43.833"/><polygon fill="#0E1011" points="170.89,77.249 34.958,29.853 136.5,39"/><polygon fill="#EDEDED" points="216.987,164.313 144.611,100 195,55.083"/><polygon fill="#F9F9F9" points="136.5,39 207.703,118.193 195,55.083"/><polygon fill="#F9F9F9" points="223.125,203.5 195,201.312 216.987,164.313"/><polygon fill="#0E1011" points="220.875,187.5 186,258.875 221.556,195.218"/><polygon fill="#F6F6F6" points="223.125,203.5 251.449,108.395 195,55.083"/><polygon fill="#FBFBFB" points="223.125,203.5 290.313,128.563 251.25,108.292"/><polygon fill="#F9F9F9" points="282.833,102.833 251.25,108.813 290,129"/><polygon fill="#F9F9F9" points="284.471,108.813 318.75,46.75 326.5,41.25"/><polygon fill="#F4F4F4" points="318.75,46.75 284.471,108.813 277.063,103.926"/><polygon fill="#F9F9F9" points="313.375,41.875 318.75,46.75 301.808,70.583"/><polygon fill="#C63C3C" points="318.75,46.75 313.375,41.875 312.667,47.5"/><polygon fill="#AA3131" points="313.375,41.875 321,38.663 318.75,46.75"/><polygon fill="#F2C949" points="314,42.525 316.061,41.748 315.146,44.002"/><polygon fill="#AA3131" points="326.5,41.25 318.375,46.75 339.75,21"/><polygon fill="#8C2C2C" points="318.75,46.75 320.404,39.225 339.75,21"/><polygon fill="#F9F9F9" points="240.329,223.662 223.125,203.5 256.563,184.599"/><polygon fill="#0E1011" points="240.329,193.775 191,262.333 233.272,197.764"/><polygon fill="#F6F6F6" points="223.125,203.5 290.196,128.502 350.5,131.5"/><polygon fill="#EDEDED" points="329.25,195 350.5,131.5 255.5,184.599"/><polygon fill="#F9F9F9" points="306.25,155.896 350.5,131.5 386.034,173.5"/><polygon fill="#292E30" points="329.25,195 382.917,228.083 339.75,163.624"/><polygon fill="#202628" points="389,239 339.75,163.624 387.125,216.25"/><polygon fill="#1A1F21" points="406,241.5 400.125,217.125 339.75,163.624"/><polygon fill="#161A1C" points="429.5,247.313 339.75,163.624 410.25,215.5"/><polygon fill="#0E1011" points="446.167,245.049 386.034,173.5 339.75,163.624"/></svg>