<?xml version="1.0" encoding="utf-8"?>
<!-- Generator: Adobe Illustrator 17.0.0, SVG Export Plug-In . SVG Version: 6.00 Build 0)  -->
<!DOCTYPE svg PUBLIC "-//W3C//DTD SVG 1.1//EN" "http://www.w3.org/Graphics/SVG/1.1/DTD/svg11.dtd">
<svg version="1.1" xmlns="http://www.w3.org/2000/svg" xmlns:xlink="http://www.w3.org/1999/xlink" x="0px" y="0px" width="500px"
	 height="300px" viewBox="0 0 500 300" enable-background="new 0 0 500 300" xml:space="preserve">
<g id="Layer_2" display="none">
	
		<image display="inline" overflow="visible" width="700" height="488" xlink:href="../species/bhutan_white_bellied_heron.jpg"  transform="matrix(0.5008 0 0 0.5008 74.7084 39.0467)">
	</image>
</g>
<g id="Layer_1">
	<polygon fill="#9B7059" points="77.806,257.091 205.833,272.5 83.167,268.5 	"/>
	<polygon fill="#774F3E" points="78.25,291 88.5,291 61.833,127.724 	"/>
	<polygon fill="#191E2B" points="170.443,90.099 114.5,106.167 173.375,100.25 	"/>
	<polygon fill="#D1D1CF" points="175.597,115.45 152.593,178.285 114.667,176.5 	"/>
	<polygon fill="#E2E1DC" points="107.833,221.5 152.593,178.285 116.833,174.5 	"/>
	<polygon fill="#D1D1CF" points="186.667,118.5 175.597,115.45 152.593,178.285 	"/>
	<polygon fill="#D1D1CF" points="116.833,174.5 175.597,115.45 157.526,109.581 	"/>
	<polygon fill="#202638" points="152.593,183.25 151.676,179.171 186.667,118.5 	"/>
	<polygon fill="#0C0E15" points="152.593,178.285 152.593,183.25 107.833,221.5 	"/>
	<polygon fill="#202638" points="126.636,205.432 106.333,222.667 109.25,231.167 	"/>
	<polygon fill="#272B38" points="128.417,189.75 143.5,266 127.167,202.833 	"/>
	<polygon fill="#3D4254" points="127.167,202.833 133.68,161.25 128.499,167.846 	"/>
	<polygon fill="#272B38" points="166.75,268.5 152.167,193.833 150.5,206 	"/>
	<polygon fill="#191E2B" points="136.58,142.998 173.09,110.069 157.021,108.125 	"/>
	<polygon fill="#283042" points="99.833,157.5 157.526,109.581 116.833,174.5 	"/>
	<polygon fill="#283042" points="213.5,104.583 268.5,95.167 250,114 	"/>
	<polygon fill="#202638" points="250,114 170.443,90.099 172,100.25 	"/>
	<polygon fill="#283042" points="157.021,110 171.532,97.948 250,114 	"/>
	<polygon fill="#202638" points="152.188,109 250,114 186.667,118.5 	"/>
	<polygon fill="#3D4254" points="150.5,206 158.625,160.5 153,168 	"/>
	<polygon fill="#202638" points="107.292,223.375 99.833,157.5 117.333,172.333 	"/>
	<polygon fill="#0C0E15" points="109.25,231.167 98,216.25 99.833,157.5 	"/>
	<polygon fill="#202638" points="100.164,157.5 171.862,97.948 114.831,106.167 	"/>
	<polygon fill="#283042" points="266.75,104.583 333.305,142.04 295.636,98.133 	"/>
	<polygon fill="#202638" points="295.636,98.133 268.5,95.167 250,114 	"/>
	<polygon fill="#D1D1CF" points="358.5,182.042 333.305,142.04 310.547,129.285 	"/>
	<polygon fill="#E2E1DC" points="358.5,182.042 333.305,142.04 321.035,135.163 	"/>
	<polygon fill="#202638" points="308.59,113.232 269.75,105.974 333.305,142.04 	"/>
	<polygon fill="#E5A857" points="315.668,127.161 319.167,128 317.292,129.285 	"/>
	<polygon fill="#191E2B" points="186.667,118.5 179.878,116.63 173.09,142.04 	"/>
</g>
</svg>
