<?xml version="1.0" encoding="utf-8"?>
<!-- Generator: Adobe Illustrator 17.0.0, SVG Export Plug-In . SVG Version: 6.00 Build 0)  -->
<!DOCTYPE svg PUBLIC "-//W3C//DTD SVG 1.1//EN" "http://www.w3.org/Graphics/SVG/1.1/DTD/svg11.dtd">
<svg version="1.1" id="Layer_1" xmlns="http://www.w3.org/2000/svg" xmlns:xlink="http://www.w3.org/1999/xlink" x="0px" y="0px"
	 width="500px" height="300px" viewBox="0 0 500 300" enable-background="new 0 0 500 300" xml:space="preserve">
<polygon fill="#5C6D1F" points="372.25,180.75 247.75,203 318,215.167 "/>
<polygon fill="#1C1C1C" points="366.5,182.75 247.75,203 319,210.441 "/>
<polygon fill="#353535" points="356.25,183.25 381.918,162.5 407.585,179.867 "/>
<polygon fill="#1C1C1C" points="335.622,195.664 313.674,156.735 247.75,203 "/>
<polygon fill="#444444" points="154.5,199.696 119.436,219.386 126.215,182.13 "/>
<polygon fill="#5C6D1F" points="247.75,203 172.833,215.167 318,215.167 "/>
<polygon fill="#667529" points="247.75,203 172.833,215.167 151.046,199.586 "/>
<polygon fill="#444444" points="309.75,148.75 386,150 337.833,135.456 "/>
<polygon fill="#3A3A3A" points="386,150 370.5,136.75 329.167,133.75 "/>
<polygon fill="#3A3A3A" points="386,150 387.5,171.5 321,146.25 "/>
<polygon fill="#444444" points="331.333,149.104 340.263,192.75 387.5,171.5 "/>
<polygon fill="#353535" points="340.263,192.75 239.833,146.349 330.25,135.456 "/>
<polygon fill="#444444" points="328,250.5 307.224,207.376 286.448,234.091 "/>
<polygon fill="#3A3A3A" points="289,186.792 286.448,234.091 316.5,205.833 "/>
<polygon points="357.583,153.375 360.083,160.568 351.75,160.568 "/>
<polygon fill="#444444" points="266.853,183.089 299.417,162.5 316.519,206.422 "/>
<polygon fill="#5C6D1F" points="335.622,133.75 241.25,207.376 305.911,172.875 "/>
<polygon fill="#EAA949" points="214.5,42.833 241.25,52.5 262.823,74.508 "/>
<polygon fill="#94A553" points="262.823,74.508 303.646,167.75 226.115,84.836 "/>
<polygon fill="#94A553" points="226.115,84.836 223.291,61.004 173.982,99.503 "/>
<polygon fill="#859E3E" points="173.982,99.503 185,209 226.115,84.836 "/>
<polygon fill="#7B8E33" points="357.583,135.456 346.167,135.456 241.25,52.5 "/>
<polygon fill="#DB9435" points="328,141 241.25,52.5 346.167,135.456 "/>
<polygon fill="#859E3E" points="303.646,167.75 328,141 262.823,74.508 "/>
<polygon fill="#859E3E" points="247.75,203 303.646,167.75 226.115,84.836 "/>
<polygon fill="#94A553" points="185,209 226.115,84.836 247.75,203 "/>
<polygon fill="#94A553" points="173.982,99.503 185,209 128,193.196 "/>
<polygon fill="#859E3E" points="128,193.196 173.982,99.503 104.5,153.752 "/>
<polygon fill="#7B8E33" points="104.5,153.752 223.291,61.004 122.5,127.833 "/>
<polygon fill="#859E3E" points="214.5,42.833 226.115,84.836 262.823,74.508 "/>
</svg>
