<?xml version="1.0" encoding="utf-8"?>
<!-- Generator: Adobe Illustrator 17.0.0, SVG Export Plug-In . SVG Version: 6.00 Build 0)  -->
<!DOCTYPE svg PUBLIC "-//W3C//DTD SVG 1.1//EN" "http://www.w3.org/Graphics/SVG/1.1/DTD/svg11.dtd">
<svg version="1.1" id="Layer_1" xmlns="http://www.w3.org/2000/svg" xmlns:xlink="http://www.w3.org/1999/xlink" x="0px" y="0px"
	 width="500px" height="300px" viewBox="0 0 500 300" enable-background="new 0 0 500 300" xml:space="preserve">
<g id="Layer_1_1_">
	<polygon fill="#333333" points="154,90.833 91.75,23.25 158.333,103.833 	"/>
	<polygon fill="#4C4C4C" points="121.802,58.446 127.167,65 119.743,17.053 	"/>
	<polygon fill="#333333" points="122.296,35.631 142.892,18.303 121.833,41.833 	"/>
	<polygon fill="#4C4C4C" points="138.501,79.831 83.292,67.459 143.621,85.993 	"/>
	<polygon fill="#333333" points="106.095,73.451 97.125,46.994 111.25,75.125 	"/>
	<polygon fill="#8E6E5C" points="154,105.25 190.354,105.25 162.125,145.462 	"/>
	<polygon fill="#4C4C4C" points="159.333,108.333 165.108,105.25 142.892,65 	"/>
	<polygon fill="#4C4C4C" points="200.935,65 178.719,105.25 184.493,108.333 	"/>
	<polygon fill="#333333" points="185.493,103.833 252.077,23.25 189.827,90.833 	"/>
	<polygon fill="#4C4C4C" points="200.206,85.993 260.535,67.459 205.326,79.831 	"/>
	<polygon fill="#333333" points="232.577,75.125 246.702,46.994 237.732,73.451 	"/>
	<polygon fill="#4C4C4C" points="224.084,17.053 216.66,65 222.025,58.446 	"/>
	<polygon fill="#333333" points="221.993,41.833 200.935,18.303 221.531,35.631 	"/>
	<polygon fill="#8E6E5C" points="185.916,127.738 159.333,112.333 173.25,185.167 	"/>
	<polygon fill="#7F5F4A" points="182.5,123 173.25,185.167 202.331,156.75 	"/>
	<polygon fill="#876751" points="182.5,145.462 190.25,105.25 161.917,145.462 	"/>
	<polygon fill="#383838" points="163.5,120.781 163.5,116.708 166.883,116.708 	"/>
	<polygon fill="#383838" points="180.25,120.781 177.188,116.708 180.25,116.708 	"/>
	<polygon fill="#383838" points="172.125,138.375 182.5,145.462 162.125,145.462 	"/>
	<polygon fill="#8E6E5C" points="223.5,230.75 200.917,153.782 173.25,185.167 	"/>
	<polygon fill="#705749" points="208.161,285.333 196.5,215.5 206.5,217.167 	"/>
	<polygon fill="#7F5F4A" points="223.5,230.75 196.5,215.5 173.25,185.167 	"/>
	<polygon fill="#8E6E5C" points="222.236,294.041 223.5,230.25 213.581,225.148 	"/>
	<polygon fill="#876751" points="298.5,231.667 200.587,153.782 223.083,230.75 	"/>
	<polygon fill="#8E6E5C" points="292.146,231.667 200.587,153.782 335.167,168.833 	"/>
	<polygon fill="#7F5F4A" points="200.613,153.872 335.232,169.098 304.5,150.167 	"/>
	<polygon fill="#705749" points="324,279.833 314.512,239.333 335.167,168.833 	"/>
	<polygon fill="#876751" points="321.766,235.105 291.583,231.583 335.167,168.833 	"/>
	<polygon fill="#8E6E5C" points="307.661,233.125 316.25,291.25 321.832,234.779 	"/>
	<polygon fill="#7F5F4A" points="343.125,195.5 334.802,168.833 332,195.875 	"/>
</g>
</svg>
