<?xml version="1.0" encoding="utf-8"?>
<!-- Generator: Adobe Illustrator 17.0.0, SVG Export Plug-In . SVG Version: 6.00 Build 0)  -->
<!DOCTYPE svg PUBLIC "-//W3C//DTD SVG 1.1//EN" "http://www.w3.org/Graphics/SVG/1.1/DTD/svg11.dtd">
<svg version="1.1" id="Layer_1" xmlns="http://www.w3.org/2000/svg" xmlns:xlink="http://www.w3.org/1999/xlink" x="0px" y="0px"
	 width="500px" height="300px" viewBox="0 0 500 300" enable-background="new 0 0 500 300" xml:space="preserve">
<polygon fill="#AA755F" points="284.5,204 299,231.57 289,198 "/>
<polygon fill="#AA755F" points="246.95,246.727 299,231.57 296.507,226.83 "/>
<polygon fill="#AA755F" points="232.625,242.25 252.496,244.5 246.95,246.727 "/>
<polygon fill="#AA755F" points="259.333,206.667 263.77,201.93 272.25,240.5 "/>
<polygon fill="#915946" points="265.251,282.25 272.25,240.5 267.962,229.268 "/>
<polygon fill="#AA755F" points="245.226,282.25 265.251,282.25 265.792,276.25 "/>
<polygon fill="#282828" points="352.833,200.598 331.167,167.604 294.5,140.375 "/>
<polygon fill="#212121" points="244.833,173.667 284.5,204 325.25,166.5 "/>
<polygon fill="#282828" points="228.5,170.902 259.333,206.667 308.5,154.167 "/>
<polygon fill="#1E1E1E" points="306,182.813 294.5,187.333 345.089,198 "/>
<polygon fill="#1E1E1E" points="250.705,128.694 220.875,98.625 222,134.833 "/>
<polygon fill="#492D27" points="229.125,154.021 250,128 294.5,140.375 "/>
<polygon fill="#1E1E1E" points="231.813,152.007 228.5,170.902 222,134.833 "/>
<polygon fill="#C8D1D5" points="228.5,170.902 231.25,152.75 246.95,185.5 "/>
<polygon fill="#E6EBED" points="231.25,152.75 294.5,187.333 246.95,185.5 "/>
<polygon fill="#1E1E1E" points="309.112,184.5 294.5,187.333 231.25,152.75 "/>
<polygon fill="#282828" points="222,134.833 250,128 231.25,152.75 "/>
<polygon fill="#1E1E1E" points="227.072,71.77 235.79,99.583 242.875,57.875 "/>
<polygon fill="#282828" points="244.417,123.083 227.667,73.167 220.875,98.625 "/>
<polygon fill="#1E1E1E" points="215.857,48.68 242.875,57.875 230.875,45.625 "/>
<polygon fill="#1E1E1E" points="227.667,73.167 219.333,52.333 214.333,56.833 "/>
<polygon fill="#282828" points="217.167,48.5 227.667,73.167 242.875,57.875 "/>
<polygon fill="#3F3F3F" points="219.406,52.453 214.333,56.833 196.5,51.333 "/>
<polygon fill="#4C4C4C" points="196.5,51.333 219.243,52.594 217.167,48.5 "/>
<polygon fill="#663E33" points="262.333,167.667 294.5,140.375 231.25,152.75 "/>
<polygon fill="#492D27" points="309.112,184.5 294.5,140.375 262.333,167.667 "/>
<polygon fill="#663E33" points="348,194.833 294.5,140.375 308.5,184.618 "/>
<polygon fill="#492D27" points="348,194.833 294.5,140.375 327.75,169.125 "/>
<polygon fill="#1E1E1E" points="348,194.833 280.5,176.333 352.833,200.598 "/>
<polygon fill="#4C4C4C" points="232.477,54.083 227.072,54.542 226.079,51.75 "/>
</svg>
