<?xml version="1.0" encoding="utf-8"?>
<!-- Generator: Adobe Illustrator 17.0.0, SVG Export Plug-In . SVG Version: 6.00 Build 0)  -->
<!DOCTYPE svg PUBLIC "-//W3C//DTD SVG 1.1//EN" "http://www.w3.org/Graphics/SVG/1.1/DTD/svg11.dtd">
<svg version="1.1" xmlns="http://www.w3.org/2000/svg" xmlns:xlink="http://www.w3.org/1999/xlink" x="0px" y="0px" width="500px"
	 height="300px" viewBox="0 0 500 300" enable-background="new 0 0 500 300" xml:space="preserve">
<g id="Layer_2" display="none">
	
		<image display="inline" overflow="visible" width="3000" height="1924" xlink:href="../species/gr8 indian bustard.jpg"  transform="matrix(0.169 0 0 0.169 -59.983 -20.2301)">
	</image>
</g>
<g id="Layer_1">
	<polygon fill="#FEFBED" points="273,206.75 284,266 269,218 	"/>
	<polygon fill="#FEFBED" points="248.333,259.667 257.967,230.5 257.333,217.218 	"/>
	<polygon fill="#FAF3E4" points="261.333,207.667 255.41,203.935 257.967,230.5 	"/>
	<polygon fill="#F4F3EE" points="239.875,58.25 192.5,44.25 235.301,61.623 	"/>
	<polygon fill="#B6A89E" points="298.5,178 261.808,191.489 236.167,180.5 	"/>
	<polygon fill="#C4B3AD" points="272.36,179.581 255.41,131.5 208,159.587 	"/>
	<polygon fill="#DDCDC3" points="307.75,190 255.41,134.43 271.478,179.109 	"/>
	<polygon fill="#FAF3E4" points="262,201.257 263,190.879 236.167,180.5 	"/>
	<polygon fill="#EDE9D6" points="270.254,222.014 236.167,180.5 273,206.75 	"/>
	<polygon fill="#C2B2A7" points="303.167,188.285 292.282,145.903 328.167,172.375 	"/>
	<polygon fill="#B8AFA7" points="303.833,186.833 343.167,194.833 328.167,171.833 	"/>
	<polygon fill="#6B6B6B" points="200.5,150 236.167,180.5 209.5,170.5 	"/>
	<polygon fill="#565656" points="331.676,177.215 343.167,192.833 338.167,193.333 	"/>
	<polygon fill="#EDEDED" points="204.875,102.25 217,119.833 236.167,67.5 	"/>
	<polygon fill="#F4F6F3" points="204.138,147.519 204.875,102.25 225.34,122.776 	"/>
	<polygon fill="#E5E3DA" points="220.521,72.52 201.625,47.5 237.488,60.01 	"/>
	<polygon fill="#F4F3EE" points="219.437,73.319 204.875,102.25 236.167,67.5 	"/>
	<polygon fill="#DBD8D2" points="239.875,58.25 236.167,67.5 219.437,73.319 	"/>
	<polygon fill="#F4F3EE" points="192.5,44.25 220.521,72.52 205.663,49.593 	"/>
	<polygon fill="#565656" points="239.875,58.25 229.656,47.25 204.875,47.907 	"/>
	<polygon fill="#FFFFFF" points="226.917,54.917 227.5,52.125 217.049,51.505 	"/>
	<polygon fill="#C4B3AD" points="231.75,127.5 200.5,150 265.875,131.25 	"/>
	<polygon fill="#B6A9A3" points="225.34,122.776 233.5,127.5 200.5,150 	"/>
	<polygon fill="#A89892" points="233.5,127.5 266.667,130.667 295,147.519 	"/>
	<polygon fill="#606060" points="237.724,182.396 210.375,158.661 274.437,179.816 	"/>
	<polygon fill="#6D6D6D" points="318.496,188.522 329.331,197.461 270.857,179.109 	"/>
	<polygon fill="#858383" points="345.5,206.75 310.833,186.833 343.167,192.833 	"/>
	<polygon fill="#D1C0B4" points="302.258,184.745 254.788,134.43 292.282,145.903 	"/>
	<polygon fill="#B5A8A3" points="200.5,150 210.375,158.661 254.788,134.43 	"/>
	<polygon fill="#F4F6F3" points="220.521,139.625 209.064,144.161 217.516,138.398 	"/>
</g>
</svg>
