<?xml version="1.0" encoding="utf-8"?>
<!-- Generator: Adobe Illustrator 17.0.0, SVG Export Plug-In . SVG Version: 6.00 Build 0)  -->
<!DOCTYPE svg PUBLIC "-//W3C//DTD SVG 1.1//EN" "http://www.w3.org/Graphics/SVG/1.1/DTD/svg11.dtd">
<svg version="1.1" id="Layer_1" xmlns="http://www.w3.org/2000/svg" xmlns:xlink="http://www.w3.org/1999/xlink" x="0px" y="0px"
	 width="500px" height="300px" viewBox="0 0 500 300" enable-background="new 0 0 500 300" xml:space="preserve">
<polygon fill="#7A695E" points="99.5,231.167 194,150.25 194,204.886 "/>
<polygon fill="#1C1C1C" points="289.5,104.667 265.25,75 308.667,92.25 "/>
<polygon fill="#6B7282" points="241.833,132.5 303.167,157.864 296.697,121.933 "/>
<polygon fill="#5D6370" points="297,122.823 252.704,110.225 241.833,132.5 "/>
<polygon fill="#1C1C1C" points="296.535,122.705 290.167,102.75 252.25,111.5 "/>
<polygon fill="#232323" points="290.5,104 265.25,75 252.25,111.5 "/>
<polygon fill="#232323" points="307.5,93 298.445,74.826 265.25,75 "/>
<polygon fill="#1C1C1C" points="298.606,75.15 265.25,75 283.389,66.255 "/>
<polygon fill="#5D6370" points="303.167,157.864 273.297,145.512 286.375,196.167 "/>
<polygon fill="#838384" points="219.75,237.083 286.375,196.167 193.15,226.057 "/>
<polygon fill="#82756E" points="194,226.5 166.956,212.407 257.974,154.952 "/>
<polygon fill="#6B7282" points="274.625,146.061 210.487,181.075 286.375,196.167 "/>
<polygon fill="#5D6370" points="286.375,196.167 194,226.5 227.181,183.312 "/>
<polygon fill="#232323" points="166.956,212.407 207.833,205.464 259.687,154.216 "/>
<polygon fill="#C93A3A" points="223.034,242.013 232.503,241.485 234.313,267.833 "/>
<polygon fill="#E44140" points="264.5,264.098 231.049,260.363 234.313,267.833 "/>
<polygon fill="#E44140" points="227.181,247.43 232.503,241.485 236.25,269.5 "/>
<polygon fill="#C93A3A" points="236.25,269.5 264.5,270.236 232.75,260.75 "/>
<polygon fill="#757677" points="246.555,220.621 218.813,236.5 228,248.5 "/>
<polygon fill="#EFEFEF" points="302.197,82.285 301.75,86.5 284.63,67.623 "/>
<polygon fill="#EFEFEF" points="297.438,123.875 259.687,113.382 295.335,117.931 "/>
<polygon fill="#E2E2E2" points="286.375,69.547 265.25,75 284.63,67.623 "/>
<polygon fill="#E2E2E2" points="272.5,83.913 284.63,96.5 279.5,86.5 "/>
<polygon fill="#C93A3A" points="319.5,93 302.106,96.5 298.333,92.5 "/>
<polygon fill="#EFEFEF" points="274.94,71.311 269.372,73.431 257.974,95.428 "/>
<polygon fill="#BA4F4F" points="294,80.25 290.5,82.285 294,83.913 "/>
<polygon fill="#61676D" points="275.469,146.41 193.893,150.341 241.833,132.5 "/>
<polygon fill="#6E7072" points="274.625,146.061 194,150.25 163,207 "/>
<polygon fill="#838384" points="207,204 163,207 257.974,154.952 "/>
<polygon fill="#E44140" points="298.75,93 302.197,82.285 319.5,93 "/>
</svg>
