<?xml version="1.0" encoding="utf-8"?>
<!-- Generator: Adobe Illustrator 17.0.0, SVG Export Plug-In . SVG Version: 6.00 Build 0)  -->
<!DOCTYPE svg PUBLIC "-//W3C//DTD SVG 1.1//EN" "http://www.w3.org/Graphics/SVG/1.1/DTD/svg11.dtd">
<svg version="1.1" xmlns="http://www.w3.org/2000/svg" xmlns:xlink="http://www.w3.org/1999/xlink" x="0px" y="0px" width="500px"
	 height="300px" viewBox="0 0 500 300" enable-background="new 0 0 500 300" xml:space="preserve">
<g id="Layer_1">
	<polygon fill="#4D4D4D" points="391.25,255.5 373.75,255.5 381.5,173.25 	"/>
	<polygon fill="#4D4D4D" points="354.75,195.96 301.25,177.25 345,175 	"/>
	<polygon fill="#5E5E5E" points="376.833,261.333 358.02,203.833 353.5,258.5 	"/>
	<polygon fill="#4D4D4D" points="396,128.333 402.624,207.75 405.778,124.628 	"/>
	<polygon fill="#636363" points="405.778,124.628 288.5,54.833 368.167,72.5 	"/>
	<polygon fill="#5E5E5E" points="288.5,54.833 406.125,124.344 347.167,180.876 	"/>
	<polygon fill="#636363" points="376.833,261.333 345,175 405.778,124.628 	"/>
	<polygon fill="#4D4D4D" points="243.833,163.485 235.833,255.5 205.585,150 	"/>
	<polygon fill="#636363" points="345,175 288.5,54.833 270.833,185.48 	"/>
	<polygon fill="#636363" points="215.167,154.067 115.5,138.313 149.5,73.167 	"/>
	<polygon fill="#5E5E5E" points="272.939,185.208 207.167,152.167 288.5,54.833 	"/>
	<polygon fill="#636363" points="292,255.5 273.207,182.965 207.167,152.167 	"/>
	<polygon fill="#5E5E5E" points="291.843,254.893 270.5,261.333 207.167,152.167 	"/>
	<polygon fill="#636363" points="207.167,152.167 235.833,255.5 203.625,253.688 	"/>
	<polygon fill="#636363" points="167.833,52.5 149.5,73.167 246,62.833 	"/>
	<polygon fill="#636363" points="207.342,152.83 203.5,66.044 288.5,54.833 	"/>
	<polygon fill="#EDEDED" points="93.091,135.743 115.008,150.556 115.5,145.833 	"/>
	<polygon fill="#636363" points="113.25,207.25 115.885,137.101 100.734,195.96 	"/>
	<polygon fill="#5E5E5E" points="112.759,207.689 149.5,143.15 115.5,137.833 	"/>
	<polygon fill="#636363" points="88.706,229.164 113.25,207.25 101.567,192.722 	"/>
	<polygon fill="#5E5E5E" points="100.734,195.96 80.796,222.661 89.083,229.583 	"/>
	<polygon fill="#4D4D4D" points="177.75,147.567 152.032,162 147.833,133.167 	"/>
	<polygon fill="#C9C9C9" points="150.42,150 113.5,159.135 149.5,143.15 	"/>
	<polygon fill="#EDEDED" points="113.5,159.135 127.275,155.726 95.75,149 	"/>
	<polygon fill="#4C4C4C" points="164.847,94.304 166.625,105.375 154.833,97.5 	"/>
	<polygon fill="#5E5E5E" points="207.167,65.561 207.167,152.167 149.5,73.167 	"/>
	<polygon fill="#4D4D4D" points="177.75,69.441 215.167,132.167 236.933,61.635 	"/>
	<polygon fill="#EDEDED" points="203.5,253.833 214.875,254.563 203.688,244.167 	"/>
	<polygon fill="#EDEDED" points="280.208,258.833 270.438,261.479 265.418,252.688 	"/>
	<polygon fill="#EDEDED" points="354.125,248.503 353.406,258.578 362.633,259.703 	"/>
</g>
<g id="Layer_2" display="none">
	
		<image display="inline" overflow="visible" width="650" height="435" xlink:href="../species/Indian-elephant-bull.jpg"  transform="matrix(0.6984 0 0 0.6984 35.25 1.8604)">
	</image>
</g>
</svg>
