<?xml version="1.0" encoding="utf-8"?>
<!-- Generator: Adobe Illustrator 17.0.0, SVG Export Plug-In . SVG Version: 6.00 Build 0)  -->
<!DOCTYPE svg PUBLIC "-//W3C//DTD SVG 1.1//EN" "http://www.w3.org/Graphics/SVG/1.1/DTD/svg11.dtd">
<svg version="1.1" id="Layer_1" xmlns="http://www.w3.org/2000/svg" xmlns:xlink="http://www.w3.org/1999/xlink" x="0px" y="0px"
	 width="500px" height="300px" viewBox="0 0 500 300" enable-background="new 0 0 500 300" xml:space="preserve">
<polygon fill="#969696" points="343.765,218.513 217.75,227.25 340.541,162.25 "/>
<polygon fill="#A3A3A3" points="250.156,210.095 128.5,188.5 217.75,227.25 "/>
<polygon fill="#969696" points="154.25,252 128.5,187.25 174.51,208.476 "/>
<polygon fill="#ADADAD" points="284.75,219.5 162.272,199.171 158.5,79 "/>
<polygon fill="#B7B7B7" points="187.833,274 154.25,252 167.211,224.157 "/>
<polygon fill="#A3A3A3" points="187.833,274 156.833,274 154.25,252 "/>
<polygon fill="#A3A3A3" points="112.75,275.5 114.692,245.381 149.75,275.5 "/>
<polygon fill="#B7B7B7" points="149.75,275.5 108.619,187.25 110.5,242 "/>
<polygon fill="#ADADAD" points="143.402,205.31 138.25,252 86.952,176 "/>
<polygon fill="#B7B7B7" points="86.952,176 161.583,214.75 165.378,128.948 "/>
<polygon fill="#A3A3A3" points="106,102.938 81.739,158.26 98.896,146.875 "/>
<polygon fill="#ADADAD" points="86.952,176 106,102.938 165.378,128.948 "/>
<polygon fill="#B7B7B7" points="106,102.938 165.378,128.948 158.5,79 "/>
<polygon fill="#B7B7B7" points="304.5,91.5 158.5,79 284.75,219.5 "/>
<polygon fill="#ADADAD" points="304.5,91.5 337.833,115 279,214.75 "/>
<polygon fill="#B7B7B7" points="337.833,115 343.765,190.25 279,214.75 "/>
<polygon fill="#B7B7B7" points="275.303,223.26 314,273.5 279,275.5 "/>
<polygon fill="#ADADAD" points="275.303,223.26 300.833,219.5 314,273.5 "/>
<polygon fill="#A3A3A3" points="311.792,234.167 279,214.75 330.035,195.342 "/>
<polygon fill="#B7B7B7" points="305.544,247.233 335.5,242 326.937,201.082 "/>
<polygon fill="#A3A3A3" points="290.25,244.75 304.5,277.167 335.5,242 "/>
<polygon fill="#ADADAD" points="380.331,178.779 342.173,231.333 337.833,115 "/>
<polygon fill="#B7B7B7" points="400.394,195.953 392.5,187.25 412.281,174.494 "/>
<polygon fill="#C1C1C1" points="381.833,176.833 399.5,188.5 407.895,245.52 "/>
<polygon fill="#B7B7B7" points="407.895,245.52 337.833,233.833 381.833,176.833 "/>
<polygon fill="#C1C1C1" points="366.712,201.082 377.5,187.201 353.833,174.494 "/>
<polygon fill="#565656" points="386.25,234.167 382,228.833 388.333,228.5 "/>
<polygon fill="#C1C1C1" points="407.895,245.52 337.833,232.833 381.833,273.5 "/>
<polygon fill="#B7B7B7" points="408.581,269.668 407.895,245.52 381.833,273.5 "/>
<polygon fill="#A3A3A3" points="408.581,269.668 407.417,245.52 432.654,240.451 "/>
</svg>
