<?xml version="1.0" encoding="utf-8"?>
<!-- Generator: Adobe Illustrator 17.0.0, SVG Export Plug-In . SVG Version: 6.00 Build 0)  -->
<!DOCTYPE svg PUBLIC "-//W3C//DTD SVG 1.1//EN" "http://www.w3.org/Graphics/SVG/1.1/DTD/svg11.dtd">
<svg version="1.1" id="Layer_1" xmlns="http://www.w3.org/2000/svg" xmlns:xlink="http://www.w3.org/1999/xlink" x="0px" y="0px"
	 width="500px" height="300px" viewBox="0 0 500 300" enable-background="new 0 0 500 300" xml:space="preserve">
<polygon fill="#282828" points="339.237,160.972 278.196,259.918 273.262,205.5 "/>
<polygon fill="#282828" points="205,257.75 229.835,179.167 200,162.333 "/>
<polygon fill="#282828" points="257.167,259.918 278.196,259.918 276.125,219.167 "/>
<polygon fill="#282828" points="190.483,257.322 205,257.75 204.875,205.5 "/>
<polygon fill="#3A3A3A" points="296.5,205.5 243.833,115.5 286.979,96.228 "/>
<polygon fill="#3A3A3A" points="339.237,160.972 273.262,138.187 296.5,205.5 "/>
<polygon fill="#F9EECA" points="291.5,87.575 267.333,133.833 317.26,87.575 "/>
<polygon fill="#F9EECA" points="358.75,102.917 352.25,155.5 336.181,91.769 "/>
<polygon fill="#F9EECA" points="352.5,155.5 325.948,108.046 267.333,133.833 "/>
<polygon fill="#FFFBED" points="326.224,112.856 352.25,155.5 336.181,91.769 "/>
<polygon fill="#FFFBED" points="317.26,87.575 322.18,112.055 267.333,133.833 "/>
<polygon fill="#5B5B5B" points="329.5,139.833 311.708,136.625 325.25,104.833 "/>
<polygon fill="#3A3A3A" points="323.5,118.625 336.181,91.769 317.26,87.575 "/>
<polygon fill="#E2BD69" points="322.18,112.055 311.708,107.458 320.971,106.039 "/>
<polygon fill="#E2BD69" points="326.224,112.856 335.5,111.188 328.706,107.601 "/>
<polygon fill="#F9EECA" points="317.26,170.5 267.333,133.833 352.292,155.313 "/>
<polygon fill="#303030" points="301.167,264.5 276.125,264.5 278.196,224.167 "/>
<polygon fill="#3A3A3A" points="296.5,205.5 253.167,186.833 301.167,264.5 "/>
<polygon fill="#303030" points="245.75,114.5 214.918,175.685 296.5,205.5 "/>
<polygon fill="#3A3A3A" points="214.918,178.5 193.824,115.5 245.75,114.5 "/>
<polygon fill="#303030" points="123.5,201.125 122.333,166.75 136.125,199 "/>
<polygon fill="#3A3A3A" points="170.75,163 215.957,173.621 239,259.918 "/>
<polygon fill="#303030" points="240.25,259.918 219,259.918 170.75,163 "/>
<polygon fill="#303030" points="136.125,199 121.273,148.874 122.006,167.838 "/>
<polygon fill="#3A3A3A" points="111.528,131.208 119.75,120 122.333,168.982 "/>
<polygon fill="#303030" points="128.333,101.133 111.528,131.208 143.25,98.25 "/>
<polygon fill="#3A3A3A" points="158.625,89.888 128.333,101.133 167.5,98.25 "/>
<polygon fill="#303030" points="176.375,114.5 176.75,98.25 158.625,89.888 "/>
<polygon fill="#3A3A3A" points="196.285,116.667 176.092,97.946 170.75,163 "/>
<polygon fill="#303030" points="216.899,176.254 195.167,115.5 170.75,163 "/>
</svg>
