<?xml version="1.0" encoding="utf-8"?>
<!-- Generator: Adobe Illustrator 17.0.0, SVG Export Plug-In . SVG Version: 6.00 Build 0)  -->
<!DOCTYPE svg PUBLIC "-//W3C//DTD SVG 1.1//EN" "http://www.w3.org/Graphics/SVG/1.1/DTD/svg11.dtd">
<svg version="1.1" id="Layer_1" xmlns="http://www.w3.org/2000/svg" xmlns:xlink="http://www.w3.org/1999/xlink" x="0px" y="0px"
	 width="500px" height="300px" viewBox="0 0 500 300" enable-background="new 0 0 500 300" xml:space="preserve">
<g id="Layer_1_1_">
	<polygon fill="#282727" points="178.8,85.007 140.89,96.028 225.294,117.599 	"/>
	<polygon fill="#332F2D" points="223.106,115.996 175.978,190.322 140.89,96.028 	"/>
	<polygon fill="#161616" points="190.379,151.045 265.529,69.815 355.605,32.167 	"/>
	<polygon fill="#161616" points="397.5,77.204 341.988,37.927 355.605,32.167 	"/>
	<polygon fill="#282727" points="270.112,74.324 341.988,37.927 384.68,68.133 	"/>
	<polygon fill="#282727" points="268.734,268.352 244.878,138.215 187.674,151.477 	"/>
	<polygon fill="#332F2D" points="243.228,139.524 284.128,131.683 260.013,221.6 	"/>
	<polygon fill="#282727" points="338.846,122.242 272.475,72.942 190.379,151.045 	"/>
	<polygon fill="#332F2D" points="338.846,122.242 271.29,73.538 344.08,69.815 	"/>
	<polygon fill="#161616" points="140.89,96.028 146.352,110.706 124.656,125.384 	"/>
	<polygon fill="#332F2D" points="162.543,182.988 190.379,151.045 263.471,260.473 	"/>
	<polygon fill="#282727" points="263.471,260.473 154.244,175.135 206.527,224.886 	"/>
	<polygon fill="#B27246" points="181.075,200.667 151.626,172.574 169.693,161.344 	"/>
	<polygon fill="#99592E" points="157.91,138.215 169.693,161.344 190.379,151.045 	"/>
	<polygon fill="#99592E" points="137.224,149.78 151.626,138.215 154.244,141.566 	"/>
	<polygon fill="#332F2D" points="137.224,149.474 136.602,162.014 169.693,161.344 	"/>
	<polygon fill="#3A2D23" points="200.504,166.203 190.379,151.045 239.469,104.021 	"/>
	<polygon fill="#332F2D" points="243.228,269.4 256.7,256.242 261.541,258.965 	"/>
	<polygon fill="#332F2D" points="268.734,268.352 266.402,282.667 264.503,262.017 	"/>
	<polygon fill="#6B462C" points="239.469,104.021 190.379,151.045 195.923,159.345 	"/>
	<polygon fill="#B27246" points="190.379,151.045 195.923,159.345 169.693,161.344 	"/>
	<polygon fill="#99592E" points="195.923,159.345 181.075,200.667 169.693,161.344 	"/>
	<polygon fill="#282727" points="169.693,161.344 153.516,140.634 137.224,149.78 	"/>
	<polygon fill="#B27246" points="157.91,138.215 151.626,138.215 169.693,161.344 	"/>
	<polygon fill="#7F4646" points="147.715,154.198 150.71,152.715 147.233,151.477 	"/>
	<polygon fill="#332F2D" points="169.693,161.344 151.626,172.574 149.826,159.773 	"/>
	<polygon fill="#282727" points="135.784,161.727 150.71,161.344 144.479,165.249 	"/>
	<polygon fill="#282727" points="150.71,161.344 151.626,172.574 139.297,167.803 	"/>
	<polygon fill="#161616" points="140.89,96.028 156.589,138.215 146.352,120.933 	"/>
	<polygon fill="#161616" points="135.784,161.727 145.033,164.976 139.297,167.803 	"/>
</g>
</svg>
