<?xml version="1.0" encoding="utf-8"?>
<!-- Generator: Adobe Illustrator 17.0.0, SVG Export Plug-In . SVG Version: 6.00 Build 0)  -->
<!DOCTYPE svg PUBLIC "-//W3C//DTD SVG 1.1//EN" "http://www.w3.org/Graphics/SVG/1.1/DTD/svg11.dtd">
<svg version="1.1" id="Layer_1" xmlns="http://www.w3.org/2000/svg" xmlns:xlink="http://www.w3.org/1999/xlink" x="0px" y="0px"
	 width="500px" height="300px" viewBox="0 0 500 300" enable-background="new 0 0 500 300" xml:space="preserve">
<g id="Layer_2" display="none" opacity="0.5">
	
		<image display="inline" overflow="visible" enable-background="new    " width="484" height="347" xlink:href="../species/red panda.jpg"  transform="matrix(0.8666 0 0 0.8666 33.7864 41.2949)">
	</image>
</g>
<g id="Layer_1_1_">
	<polygon fill="#77341F" points="296.125,180.375 78.958,184.042 116.375,104.375 	"/>
	<polygon fill="#EF923F" points="292.5,179.833 333.006,148.244 432.5,245.833 	"/>
	<polygon fill="#D17B34" points="292.5,179.833 432.5,245.833 428,274.5 	"/>
	<polygon fill="#633212" points="432.5,245.833 433.347,278.25 393.431,250.349 	"/>
	<polygon fill="#7F3F14" points="410.946,224.772 368.074,232.633 404.48,218.35 	"/>
	<polygon fill="#91471D" points="382.855,197.138 346.083,216.856 375.706,190.127 	"/>
	<polygon fill="#BF6B33" points="292.5,179.833 333.006,148.244 267.75,103.833 	"/>
	<polygon fill="#AF5920" points="349.959,164.872 357.534,172.302 322.475,200.775 	"/>
	<polygon fill="#160F0E" points="250,218.894 223,188.658 205.833,218.325 	"/>
	<polygon fill="#1E1513" points="241.333,208.833 267.75,239.5 233,239.5 	"/>
	<polygon fill="#2D1D19" points="224.75,194.25 267.75,239.5 275.643,182.75 	"/>
	<polygon fill="#1E1513" points="60,222.833 83.5,188.658 87.833,222.833 	"/>
	<polygon fill="#2D1D19" points="76,170 87.833,222.833 111.524,181.658 	"/>
	<polygon fill="#2D1D19" points="109.167,181.658 171.845,188.658 171.845,240.75 	"/>
	<polygon fill="#5E2819" points="209.357,199.199 108.167,181.658 292.5,179.833 	"/>
	<polygon fill="#1E1513" points="171.845,240.75 145.657,215.095 134.25,240.75 	"/>
	<polygon fill="#B45428" points="222.75,83.5 104.75,105.75 267.75,103.833 	"/>
	<polygon fill="#9B4726" points="112.75,103.833 292.5,179.833 267.75,103.833 	"/>
	<polygon fill="#E0A957" points="115,83.5 56.333,166.333 123.667,155.667 	"/>
	<polygon fill="#E0A957" points="56.333,166.333 123.527,154.5 37.5,107 	"/>
	<polygon fill="#E0A957" points="89.345,181.658 56.333,164.872 123.527,154.5 	"/>
	<polygon fill="#DD9333" points="41.143,118.476 89.345,181.658 116.826,98.701 	"/>
	<polygon fill="#FFEEDC" points="56.333,166.333 62.75,146.798 89.345,181.658 	"/>
	<polygon fill="#FFEEDC" points="89.345,181.658 123.667,155.667 103.852,137.866 	"/>
	<polygon fill="#FCF8F5" points="89.345,181.658 62.75,146.798 103.852,137.866 	"/>
	<polygon fill="#77341F" points="93.762,146.798 93.762,151.571 99.375,151.571 	"/>
	<polygon fill="#77341F" points="70.479,156.928 76,154.816 74.525,150.616 	"/>
	<polygon fill="#1E1513" points="89.345,181.658 81.938,171.949 93.207,170 	"/>
	<polygon fill="#EFA852" points="89.345,181.658 53.348,156.928 56.333,166.333 	"/>
	<polygon fill="#EFA852" points="122.161,143.127 123.667,155.667 89.345,181.658 	"/>
</g>
</svg>
