<?xml version="1.0" encoding="utf-8"?>
<!-- Generator: Adobe Illustrator 17.0.0, SVG Export Plug-In . SVG Version: 6.00 Build 0)  -->
<!DOCTYPE svg PUBLIC "-//W3C//DTD SVG 1.1//EN" "http://www.w3.org/Graphics/SVG/1.1/DTD/svg11.dtd">
<svg version="1.1" id="Layer_1" xmlns="http://www.w3.org/2000/svg" xmlns:xlink="http://www.w3.org/1999/xlink" x="0px" y="0px"
	 width="500px" height="300px" viewBox="0 0 500 300" enable-background="new 0 0 500 300" xml:space="preserve">
<polygon fill="#3A3A3A" points="149,211 277.75,107.648 211,150 "/>
<polygon fill="#444444" points="310.662,161.922 260.5,118.5 314.505,102.25 "/>
<polygon fill="#3A3A3A" points="305.068,109.1 281.5,86 296.5,89 "/>
<polygon fill="#A54C4C" points="304.36,107.648 314.505,104.863 316.5,75.167 "/>
<polygon fill="#B75A5A" points="304.36,107.648 321.718,62.509 299.25,78.167 "/>
<polygon fill="#B75A5A" points="322.333,62.142 296.5,57.5 299.083,78.833 "/>
<polygon fill="#A54C4C" points="304.36,107.648 296.5,89 296.5,57.5 "/>
<polygon fill="#A54C4C" points="333,64.75 307.833,52.833 296.5,57.5 "/>
<polygon fill="#444444" points="321.718,62.509 316.5,75.167 334.25,74.667 "/>
<polygon fill="#3A3A3A" points="336.667,64.75 336.667,76.997 320.833,61.833 "/>
<polygon fill="#494949" points="313.707,116.5 260.5,118.5 281.5,86 "/>
<polygon fill="#494949" points="260.5,118.5 273.5,202.5 311.197,161.327 "/>
<polygon fill="#444444" points="276.667,198.5 155.818,205.344 260.5,118.5 "/>
<polygon fill="#444444" points="325.067,126.032 321.718,150 275,200.375 "/>
<polygon fill="#494949" points="217.898,153.843 324.96,126.803 276.667,198.5 "/>
<polygon fill="#3A3A3A" points="217.898,153.843 313.707,116.5 326.063,126.803 "/>
<polygon fill="#444444" points="161.384,208.082 276.667,198.5 219,155 "/>
<polygon fill="#494949" points="276.667,198.5 157.708,257.75 161.384,206.149 "/>
<polygon fill="#994B4B" points="257.375,257.926 284.167,265.278 256.125,265.278 "/>
<polygon fill="#994B4B" points="259.747,252.375 253.5,240.25 256.125,265.278 "/>
<polygon fill="#B75A5A" points="248.625,268.07 275.833,269.833 250.5,259.375 "/>
<polygon fill="#444444" points="242.827,214.82 276.667,198.5 254.625,252.375 "/>
<polygon fill="#B75A5A" points="254.625,252.375 248.625,268.07 249.694,236.68 "/>
<polygon fill="#3A3A3A" points="256.873,246.88 276.667,198.5 259.747,252.375 "/>
<polygon fill="#3A3A3A" points="161.384,259.375 276.667,198.5 153.917,257.75 "/>
<polygon fill="#3A3A3A" points="161.5,205.344 217.898,153.843 161.325,209.091 "/>
<polygon fill="#3A3A3A" points="161.5,205.344 153.917,257.75 159.25,257 "/>
<polygon fill="#FFF57B" points="310.43,60.63 306.079,61.875 309.266,64.75 "/>
<polygon fill="#E0A6A6" points="322.333,61.461 315.64,61.302 316.377,76.997 "/>
<polygon fill="#E09090" points="315.64,61.302 319.106,58.171 336.667,64.75 "/>
</svg>
