<?xml version="1.0" encoding="utf-8"?>
<!-- Generator: Adobe Illustrator 17.0.0, SVG Export Plug-In . SVG Version: 6.00 Build 0)  -->
<!DOCTYPE svg PUBLIC "-//W3C//DTD SVG 1.1//EN" "http://www.w3.org/Graphics/SVG/1.1/DTD/svg11.dtd">
<svg version="1.1" xmlns="http://www.w3.org/2000/svg" xmlns:xlink="http://www.w3.org/1999/xlink" x="0px" y="0px" width="500px"
	 height="300px" viewBox="0 0 500 300" enable-background="new 0 0 500 300" xml:space="preserve">
<g id="Layer_2" display="none">
	
		<image display="inline" overflow="visible" width="1300" height="921" xlink:href="../species/denisons-barb-roseline-shark-sahyadria-denisonii-red-line-torpedo-barb-aquarium-fish-46223539.jpg"  transform="matrix(0.4351 0 0 0.4351 -47.5632 -46.6103)">
	</image>
</g>
<g id="Layer_1">
	<polygon fill="#DDDED5" points="246.5,56.837 209.5,119.5 287.62,132.22 	"/>
	<polygon fill="#DDDED5" points="216.868,194.494 260.833,186.833 249.417,238.167 	"/>
	<polygon fill="#DDDED5" points="333.833,176.833 316.833,219.167 285.896,186.011 	"/>
	<polygon fill="#FFEB78" points="385,150 84.469,142.763 385,191.5 	"/>
	<polygon fill="#F2E199" points="321.024,181.695 385,191.5 385,173.833 	"/>
	<polygon fill="#FFEB78" points="412.5,156.793 84.469,142.763 212,115.5 	"/>
	<polygon fill="#FCDC59" points="385,163 212,115.5 275,161.763 	"/>
	<polygon fill="#E84A46" points="193.358,141.808 113.696,140.722 65.127,170.122 	"/>
	<polygon fill="#ED6B6B" points="65.127,170.122 84.469,142.763 124.44,134.218 	"/>
	<polygon fill="#F2E4B8" points="216.868,194.494 390.455,173.194 65.127,170.122 	"/>
	<polygon fill="#F2E4B8" points="65.127,170.122 101.087,159.513 403.987,173.833 	"/>
	<polygon fill="#FF9A22" points="101.087,159.513 192,141.75 249.126,142.763 	"/>
	<polygon fill="#F9D43A" points="278.25,163.5 97.476,159.513 249.126,142.763 	"/>
	<polygon fill="#565656" points="385,173.833 103.5,159.833 385,163 	"/>
	<polygon fill="#CECECA" points="385,150 385,189 467,123.5 	"/>
	<polygon fill="#DDDED5" points="385,150 457.5,227.5 385,191.5 	"/>
	<polygon fill="#ED6B6B" points="224.051,117.603 229.5,119.5 242.5,71.167 	"/>
	<polygon fill="#565656" points="430.893,135.169 440.017,132.22 429.609,153.368 	"/>
	<polygon fill="#565656" points="429.609,213.65 419.457,208.61 429.609,197.685 	"/>
	<polygon fill="#FFEB78" points="417.295,163.204 430.893,135.169 417.295,139.563 	"/>
	<polygon fill="#FFEB78" points="419.457,208.61 419.457,186.833 406.329,202.091 	"/>
	<polygon fill="#E84A46" points="248.485,82 248.485,123.33 241.521,121.896 	"/>
	<polygon fill="#ED6B6B" points="295.294,184.87 301.205,184.145 313.833,205.668 	"/>
	<polygon fill="#E84A46" points="229.104,192.992 244.25,223.5 222.833,193.762 	"/>
	<polygon fill="#FCEDA7" points="214.139,194.494 382.271,173.833 100.771,159.833 	"/>
	<polygon fill="#FF9A22" points="259.595,125.75 265.207,126.458 257.75,101.75 	"/>
	<polygon fill="#565656" points="91.125,159.833 97.313,153.752 103.5,159.833 	"/>
	<polygon fill="#565656" points="91.451,159.513 103.5,159.833 97.313,164.978 	"/>
	<polygon fill="#565656" points="395.155,160.855 408.297,150.631 392.133,157.625 	"/>
	<polygon fill="#565656" points="397.833,188.75 385,179.167 385,173.833 	"/>
</g>
<g id="Layer_3" display="none">
	
		<image display="inline" overflow="visible" width="1300" height="921" xlink:href="../species/denisons-barb-roseline-shark-sahyadria-denisonii-red-line-torpedo-barb-aquarium-fish-46223539.jpg"  transform="matrix(0.4351 0 0 0.4351 -47.5632 -46.6103)">
	</image>
</g>
</svg>
