<?xml version="1.0" encoding="utf-8"?>
<!-- Generator: Adobe Illustrator 17.0.0, SVG Export Plug-In . SVG Version: 6.00 Build 0)  -->
<!DOCTYPE svg PUBLIC "-//W3C//DTD SVG 1.1//EN" "http://www.w3.org/Graphics/SVG/1.1/DTD/svg11.dtd">
<svg version="1.1" id="Layer_1" xmlns="http://www.w3.org/2000/svg" xmlns:xlink="http://www.w3.org/1999/xlink" x="0px" y="0px"
	 width="500px" height="300px" viewBox="0 0 500 300" enable-background="new 0 0 500 300" xml:space="preserve">
<g id="Layer_1_1_">
	<polygon fill="#353130" points="272.659,50.75 265.167,62.167 299,53.833 	"/>
	<polygon fill="#1E1C1C" points="299,53.833 272.659,50.939 287.625,47.125 	"/>
	<polygon fill="#F1E0D9" points="293.188,79.938 308.5,71.813 286,52.667 	"/>
	<polygon fill="#F1E0D9" points="265.087,62.417 271.333,56 286,52.667 	"/>
	<polygon fill="#F4EBE9" points="286,52.667 307.833,72.167 299,53.833 	"/>
	<polygon fill="#F4EBE9" points="286,52.667 265.167,62.167 293.833,79.5 	"/>
	<polygon fill="#1E1C1C" points="261,117.25 246.833,205.033 294.5,178.833 	"/>
	<polygon fill="#353130" points="294.5,178.833 305.617,142.5 250,118.5 	"/>
	<polygon fill="#111010" points="160.166,208.497 246.833,205.033 251.589,184.25 	"/>
	<polygon fill="#353130" points="287.917,62.833 306.917,68.833 294.5,56.938 	"/>
	<polygon fill="#726C6A" points="292.333,103 305.617,142.5 260.667,126.167 	"/>
	<polygon fill="#F4EBE9" points="292.333,103 265.167,62.167 248.75,113.25 	"/>
	<polygon fill="#F1E0D9" points="292.333,103 293.833,79.5 265.167,62.167 	"/>
	<polygon fill="#F1E0D9" points="271.75,176.75 284.716,152.638 264.167,123.5 	"/>
	<polygon fill="#F4EBE9" points="265.167,121.833 271.75,176.75 254.069,184.25 	"/>
	<polygon fill="#F1E0D9" points="208.535,189.75 254.069,184.25 265.167,124.92 	"/>
	<polygon fill="#0A0A0A" points="160.897,209.073 181.505,186.633 156.167,210.333 	"/>
	<polygon fill="#1E1C1C" points="268.333,279.833 250,227.833 251.589,219.083 	"/>
	<polygon fill="#353130" points="250,227.833 252.622,201.851 257.857,198.974 	"/>
	<polygon fill="#1E1C1C" points="240.413,218.75 237.577,226.015 243.25,279.833 	"/>
	<polygon fill="#353130" points="242.661,205.2 246.833,205.033 237.577,226.015 	"/>
	<polygon fill="#111010" points="305.73,73.268 287.917,62.833 305.617,67.566 	"/>
	<polygon fill="#1E1C1C" points="305.617,67.566 302.938,69.625 324.5,73.268 	"/>
	<polygon fill="#F4EBE9" points="208.535,189.75 268.5,121.167 161.827,208.109 	"/>
	<polygon fill="#F1E0D9" points="292.333,103 161.827,208.109 248.75,113.25 	"/>
	<polygon fill="#353130" points="324.5,73.268 303.116,69.488 305.73,73.268 	"/>
	<polygon fill="#1E1C1C" points="287.917,62.833 294.5,56.938 265.167,66.134 	"/>
	<polygon fill="#0A0A0A" points="290.667,60.371 293.563,63.125 294.5,59.092 	"/>
	<polygon fill="#0A0A0A" points="208.535,189.75 156.167,210.333 254.069,184.25 	"/>
	<polygon fill="#BCB1AF" points="292.333,103 298.443,121.167 265.167,124.92 	"/>
</g>
</svg>
