<?xml version="1.0" encoding="utf-8"?>
<!-- Generator: Adobe Illustrator 17.0.0, SVG Export Plug-In . SVG Version: 6.00 Build 0)  -->
<!DOCTYPE svg PUBLIC "-//W3C//DTD SVG 1.1//EN" "http://www.w3.org/Graphics/SVG/1.1/DTD/svg11.dtd">
<svg version="1.1" id="Layer_1" xmlns="http://www.w3.org/2000/svg" xmlns:xlink="http://www.w3.org/1999/xlink" x="0px" y="0px"
	 width="500px" height="300px" viewBox="0 0 500 300" enable-background="new 0 0 500 300" xml:space="preserve">
<g id="Layer_1_1_">
	<polygon fill="#9B7059" points="101.741,240.715 246.291,258.112 107.794,253.596 	"/>
	<polygon fill="#774F3E" points="102.243,279 113.816,279 83.707,94.652 	"/>
	<polygon fill="#E2E1DC" points="135.644,200.531 186.18,151.739 145.805,147.465 	"/>
	<polygon fill="#D1D1CF" points="145.805,147.465 212.153,80.794 191.75,74.168 	"/>
	<polygon fill="#D1D1CF" points="212.153,80.794 186.18,151.739 143.36,149.723 	"/>
	<polygon fill="#D1D1CF" points="224.652,84.238 212.153,80.794 186.18,151.739 	"/>
	<polygon fill="#191E2B" points="225.5,83 217.411,80.794 209.322,110.816 	"/>
	<polygon fill="#202638" points="186.18,157.344 185.145,152.739 224.652,84.238 	"/>
	<polygon fill="#0C0E15" points="186.18,151.739 186.18,157.344 135.644,200.531 	"/>
	<polygon fill="#353535" points="157.473,179.455 164.826,132.505 158.977,139.952 	"/>
	<polygon fill="#353535" points="183.817,183.03 192.991,131.658 186.64,140.126 	"/>
	<polygon fill="#1C1C1C" points="159.18,166.181 175.914,250.774 157.473,179.455 	"/>
	<polygon fill="#1C1C1C" points="202.164,253.596 185.699,169.293 183.817,183.03 	"/>
	<polygon fill="#202638" points="156.873,182.389 133.95,201.848 137.244,211.445 	"/>
	<polygon fill="#202638" points="135.033,202.648 126.611,128.271 146.37,145.018 	"/>
	<polygon fill="#0C0E15" points="137.244,211.445 124.542,194.603 126.611,128.271 	"/>
	<polygon fill="#191E2B" points="168.101,111.898 209.322,74.719 191.18,72.524 	"/>
	<polygon fill="#283042" points="126.611,128.271 191.75,74.168 145.805,147.465 	"/>
	<polygon fill="#202638" points="126.985,128.271 207.936,61.034 143.545,70.313 	"/>
	<polygon fill="#202638" points="185.145,72.524 296.158,79.157 224.652,84.238 	"/>
	<polygon fill="#283042" points="191.18,74.641 207.563,61.034 296.158,79.157 	"/>
	<polygon fill="#191E2B" points="206.334,52.172 143.171,70.313 209.644,63.633 	"/>
	<polygon fill="#202638" points="296.158,79.157 206.334,52.172 208.092,63.633 	"/>
	<polygon fill="#283042" points="257.917,72.917 317.046,57.894 296.158,79.157 	"/>
	<polygon fill="#202638" points="347.684,61.242 316.565,57.976 296.158,79.157 	"/>
	<polygon fill="#283042" points="318.851,70.653 390.214,110.816 347.563,61.209 	"/>
	<polygon fill="#202638" points="362.309,78.29 318.851,70.653 390.214,110.816 	"/>
	<polygon fill="#E5A857" points="370.301,94.017 374.251,94.964 372.134,96.415 	"/>
	<polygon fill="#9B9B9B" points="418.661,155.98 390.214,110.816 364.519,96.415 	"/>
	<polygon fill="#636363" points="418.661,155.98 390.214,110.816 376.361,103.051 	"/>
</g>
</svg>
